<svg width="239" height="415" viewBox="0 0 239 415" fill="none" xmlns="http://www.w3.org/2000/svg">
<path d="M137.534 119.589C137.534 119.589 118.785 161.67 69.2022 152.03C19.6197 142.39 -10.2536 210.212 36.6224 234.942C83.4985 259.671 51.0122 288.079 82.2753 302.59C117.808 319.082 131.058 263.935 157.236 269.057C215.01 280.361 250.748 260.974 234.945 234.884C207.206 189.086 187.065 190.772 195.25 161.197C203.435 131.623 157.212 86.2201 137.534 119.589Z" fill="#F2F1FF"/>
<path d="M128.484 215.634C124.127 223.983 123.028 228.42 109.812 236.705C109.71 236.772 109.633 236.872 109.594 236.988C107.483 243.533 103.909 249.512 99.1434 254.471C99.0792 254.537 99.034 254.619 99.0127 254.709C98.9914 254.798 98.9946 254.892 99.0221 254.98C100.501 259.902 102.102 268.777 97.648 276.052C91.1011 286.762 86.252 280.295 87.2619 277.87C88.1266 275.793 95.5143 271.331 93.8088 260.185C93.7945 260.096 93.7574 260.012 93.7012 259.942C93.645 259.871 93.5716 259.816 93.4879 259.782C93.4043 259.748 93.3133 259.736 93.2237 259.747C93.1341 259.758 93.0489 259.792 92.9762 259.846C87.6215 263.732 81.4755 266.39 74.9762 267.63C74.904 267.642 74.8352 267.669 74.7742 267.709C74.7133 267.75 74.6616 267.803 74.6227 267.865C74.5837 267.926 74.5583 267.996 74.5482 268.068C74.538 268.141 74.5434 268.214 74.5639 268.285C76.2209 274.217 77.0049 283.489 70.0861 292.016C66.3923 296.461 61.4942 289.962 66.3923 285.534C69.4313 282.793 69.197 274.913 67.7744 268.843C67.7473 268.725 67.68 268.62 67.5842 268.546C67.4883 268.473 67.3698 268.435 67.249 268.439C66.9662 268.447 66.675 268.447 66.3923 268.447C56.3949 268.462 46.6752 265.158 38.7576 259.054C38.6852 258.997 38.5992 258.96 38.5083 258.947C38.4174 258.934 38.3245 258.944 38.2389 258.978C38.1533 259.011 38.0778 259.066 38.02 259.138C37.9621 259.209 37.9238 259.294 37.9089 259.385C36.0094 271.929 43.5509 276.27 44.6256 279.487C45.8219 283.084 43.0737 286.284 39.6871 285.379C39.6136 285.357 39.5451 285.322 39.485 285.274C28.4441 276.981 29.4059 259.603 30.6183 251.238C30.6294 251.169 30.6257 251.099 30.6076 251.033C30.5895 250.966 30.5573 250.903 30.5131 250.85C24.3388 242.905 20.9961 233.124 21.016 223.062C21.016 204.609 32.0327 188.726 47.8506 181.638C47.8517 181.638 47.8527 181.638 47.8537 181.637C47.8547 181.637 47.8556 181.636 47.8564 181.635C47.8571 181.635 47.8577 181.634 47.8581 181.633C47.8585 181.632 47.8587 181.631 47.8587 181.63C50.2915 178.55 53.258 174.194 53.7107 171.138C53.7256 171.035 53.7711 170.938 53.8412 170.861C53.9114 170.783 54.0031 170.728 54.1046 170.703C54.2061 170.678 54.3128 170.684 54.4111 170.719C54.5094 170.755 54.5947 170.819 54.6563 170.904C55.8202 172.472 57.6227 175.463 57.2267 178.615C57.2104 178.72 57.2025 178.825 57.1862 178.93C57.1539 179.108 57.1136 179.278 57.0731 179.455C57.0326 179.593 57.0003 179.73 56.9519 179.868C57.5171 179.396 58.0565 178.894 58.5676 178.364C59.7556 177.144 61.2591 175.309 61.9058 173.345C61.9364 173.24 61.9987 173.147 62.0841 173.08C62.1696 173.012 62.274 172.972 62.383 172.966C62.492 172.96 62.6002 172.987 62.6927 173.045C62.7853 173.103 62.8576 173.188 62.8998 173.289C63.3198 174.324 63.8131 175.77 63.9828 177.249C63.9974 177.382 64.0611 177.504 64.1612 177.593C64.2614 177.681 64.3909 177.729 64.5243 177.726C65.1468 177.702 65.7691 177.686 66.3915 177.686C91.4558 177.686 111.776 198.006 111.776 223.062C111.776 223.636 111.768 224.202 111.743 224.768C111.74 224.854 111.757 224.94 111.795 225.018C111.832 225.096 111.887 225.164 111.956 225.216C112.026 225.267 112.107 225.301 112.192 225.315C112.277 225.328 112.365 225.321 112.447 225.293C115.146 224.347 118.549 222.068 120.602 216.644C124.441 206.541 124.846 203.712 123.633 195.831C122.421 187.951 128.281 188.355 129.493 190.982C130.705 193.608 133.333 206.338 128.484 215.634Z" fill="#9158C0"/>
<path d="M48.6658 227.042C48.5112 227.042 48.361 226.991 48.2387 226.896C48.1163 226.802 48.0287 226.67 47.9894 226.52C47.6847 225.189 47.6192 223.814 47.7961 222.46C48.1941 219.517 49.7957 217.354 52.4278 216.204C54.1479 215.453 55.7738 215.409 57.2604 216.076C60.3072 217.441 61.6043 221.313 61.658 221.477C61.7102 221.652 61.692 221.84 61.6074 222.002C61.5228 222.163 61.3784 222.286 61.2051 222.342C61.0317 222.399 60.8431 222.386 60.6793 222.306C60.5154 222.226 60.3894 222.085 60.328 221.913C60.317 221.879 59.1633 218.459 56.6836 217.351C55.5734 216.855 54.3303 216.901 52.9887 217.487C50.8107 218.439 49.5325 220.161 49.1898 222.606C49.0332 223.793 49.0856 224.998 49.3446 226.166C49.3912 226.346 49.3646 226.537 49.2707 226.697C49.1767 226.857 49.023 226.973 48.8434 227.02C48.7854 227.035 48.7257 227.042 48.6658 227.042Z" fill="white"/>
<path d="M69.7674 220.632C69.6208 220.632 69.4778 220.586 69.3588 220.5C69.2398 220.414 69.1507 220.293 69.1041 220.154C68.7134 218.851 68.5589 217.489 68.6477 216.132C68.8542 213.181 70.3125 210.927 72.8648 209.614C74.5358 208.754 76.1579 208.606 77.6868 209.176C80.8088 210.338 82.3519 214.093 82.416 214.252C82.4833 214.424 82.4801 214.615 82.407 214.785C82.334 214.954 82.197 215.088 82.0259 215.157C81.8548 215.226 81.6633 215.224 81.4932 215.153C81.3231 215.081 81.1881 214.946 81.1175 214.775C81.1035 214.743 79.7345 211.428 77.1932 210.486C76.0502 210.062 74.8098 210.188 73.5056 210.859C71.3942 211.945 70.2308 213.738 70.0476 216.188C69.9685 217.376 70.0987 218.568 70.4324 219.711C70.4672 219.817 70.4764 219.929 70.4595 220.038C70.4426 220.148 70.4 220.251 70.3351 220.341C70.2702 220.431 70.185 220.504 70.0864 220.555C69.9877 220.605 69.8785 220.632 69.7677 220.632H69.7674Z" fill="white"/>
<path d="M67.9862 235.276C63.2219 235.276 59.5892 232.106 59.4073 231.944C59.3385 231.883 59.2825 231.809 59.2423 231.727C59.2022 231.644 59.1787 231.554 59.1733 231.463C59.1678 231.371 59.1805 231.279 59.2106 231.192C59.2407 231.105 59.2876 231.025 59.3486 230.956C59.4097 230.888 59.4836 230.831 59.5663 230.791C59.649 230.751 59.7388 230.728 59.8306 230.722C59.9224 230.717 60.0143 230.729 60.1012 230.76C60.1881 230.79 60.2682 230.837 60.3369 230.898C60.3846 230.94 65.1819 235.109 70.5831 233.499C75.9591 231.897 77.4334 225.071 77.4479 225.003C77.4871 224.823 77.5957 224.665 77.7502 224.565C77.9046 224.464 78.0925 224.429 78.2729 224.466C78.4534 224.503 78.612 224.61 78.7142 224.763C78.8164 224.917 78.8541 225.104 78.819 225.285C78.4862 226.699 77.9649 228.062 77.2691 229.337C75.7322 232.17 73.5591 234.073 70.9831 234.841C70.0106 235.131 69.001 235.278 67.9862 235.276Z" fill="white"/>
<path d="M218.882 204.119C218.821 205.639 218.667 207.154 218.419 208.655C215.044 229.299 195.582 243.292 174.938 239.917C154.302 236.543 140.301 217.08 143.676 196.436C143.892 195.12 144.176 193.832 144.512 192.576C129.201 182.178 130.096 162.128 133.031 159.905C135.995 157.654 139.231 159.551 138.893 165.777C138.545 174.82 144.112 182.297 147.2 185.554C154.429 171.142 170.406 162.436 187.157 165.174C203.414 167.831 215.541 180.469 218.318 195.796C221.348 194.694 226.7 191.515 231.036 182.478C231.641 180.677 231.809 179.353 231.841 178.555C231.862 177.81 232.153 177.098 232.66 176.551C233.608 175.56 235.287 174.507 237.455 176.123C237.948 176.492 238.346 176.974 238.614 177.528C238.883 178.082 239.015 178.692 238.999 179.308C238.863 184.192 234.955 196.075 218.882 204.119Z" fill="#8E88F5"/>
<path d="M196.361 210.815C195.405 216.662 187.364 220.212 178.405 218.748C169.439 217.282 162.947 211.356 163.903 205.509C164.085 204.42 164.51 203.387 165.148 202.485C165.322 202.241 165.583 202.073 165.877 202.016C166.172 201.959 166.477 202.016 166.73 202.177C169.939 204.187 175.019 205.959 180.88 206.917C186.275 207.799 191.266 207.812 194.899 207.123C195.195 207.066 195.501 207.125 195.754 207.288C196.008 207.451 196.189 207.705 196.26 207.998C196.478 208.921 196.513 209.878 196.361 210.815Z" fill="white"/>
<path d="M179.363 199.214C179.261 199.214 179.161 199.192 179.069 199.149C178.976 199.107 178.894 199.045 178.829 198.967C178.763 198.89 178.715 198.799 178.687 198.701C178.66 198.603 178.655 198.501 178.671 198.401C178.906 196.963 178.56 195.491 177.71 194.309C176.86 193.127 175.575 192.33 174.137 192.095C172.7 191.86 171.228 192.206 170.046 193.056C168.863 193.906 168.067 195.192 167.832 196.629C167.802 196.812 167.701 196.976 167.55 197.084C167.399 197.193 167.211 197.237 167.028 197.207C166.845 197.177 166.681 197.075 166.573 196.925C166.464 196.774 166.42 196.586 166.45 196.403C166.745 194.599 167.745 192.986 169.229 191.919C170.712 190.852 172.559 190.419 174.363 190.714C176.167 191.008 177.78 192.008 178.847 193.492C179.914 194.976 180.347 196.823 180.053 198.626C180.026 198.79 179.942 198.939 179.815 199.047C179.689 199.154 179.529 199.213 179.363 199.214Z" fill="white"/>
<path d="M196.155 201.959C196.053 201.959 195.953 201.936 195.861 201.894C195.769 201.851 195.687 201.789 195.621 201.712C195.555 201.634 195.507 201.544 195.48 201.446C195.452 201.348 195.447 201.246 195.463 201.146C195.692 199.711 195.343 198.244 194.493 197.066C193.643 195.888 192.36 195.095 190.926 194.86C189.492 194.626 188.024 194.969 186.843 195.815C185.662 196.661 184.864 197.941 184.624 199.374C184.61 199.465 184.577 199.552 184.529 199.63C184.481 199.709 184.417 199.777 184.342 199.831C184.268 199.885 184.183 199.923 184.094 199.945C184.004 199.966 183.911 199.969 183.82 199.954C183.729 199.939 183.642 199.907 183.564 199.858C183.485 199.809 183.418 199.746 183.364 199.671C183.31 199.596 183.272 199.511 183.251 199.422C183.23 199.332 183.227 199.239 183.242 199.148C183.542 197.349 184.543 195.742 186.026 194.679C187.508 193.617 189.352 193.186 191.152 193.48C192.952 193.774 194.562 194.77 195.629 196.249C196.696 197.729 197.133 199.571 196.845 201.372C196.818 201.535 196.734 201.684 196.607 201.792C196.481 201.899 196.32 201.959 196.155 201.959Z" fill="white"/>
<path d="M133.878 37.8938L161.925 85.4114L141.845 92.493L133.878 37.8938Z" fill="#EAD300"/>
<circle cx="91.6268" cy="106.026" r="4.60981" fill="#9F00EA"/>
<circle cx="96.1627" cy="59.9274" r="10.7562" fill="#EAA900"/>
<rect x="47.0654" y="147.954" width="30.732" height="15.366" transform="rotate(-45.5869 47.0654 147.954)" fill="#EAA900"/>
<rect x="189.503" y="39.9517" width="9.21961" height="15.366" transform="rotate(21.9911 189.503 39.9517)" fill="#EA0000"/>
<path d="M35.0249 126.001C35.0249 126.001 33.5289 117.114 37.8223 115.343C41.4292 113.855 44.5562 120.436 47.5199 118.05C50.5219 115.633 43.0279 111.805 45.4685 108.914C48.0371 105.872 56.285 108.914 56.285 108.914" stroke="#005EEA" stroke-width="1.2"/>
<path d="M199.85 103.704C204.916 104.214 209.841 96.5071 209.272 102.158C208.703 107.808 204.135 111.976 199.069 111.466C194.002 110.956 190.356 105.962 190.925 100.311C191.494 94.6605 194.784 103.194 199.85 103.704Z" fill="#005EEA"/>
<path d="M153.017 116.782L156.467 127.399L167.631 127.399L158.599 133.961L162.049 144.579L153.017 138.017L143.985 144.579L147.435 133.961L138.403 127.399L149.567 127.399L153.017 116.782Z" fill="#05EA00"/>
<path d="M42.3817 64.5373L44.4517 70.9079H51.1501L45.7309 74.8451L47.8009 81.2157L42.3817 77.2785L36.9626 81.2157L39.0325 74.8451L33.6133 70.9079H40.3118L42.3817 64.5373Z" fill="#EAD300"/>
<path d="M127.427 25.5555L128.958 12.3553L139.627 19.1191L140.843 8.04555L150.575 14.7494L153.605 2.77804" stroke="#005EEA"/>
<path d="M44.4794 328.48C44.4794 321.792 49.3754 317.056 55.8074 317.056C60.7674 317.056 64.7994 319.712 66.3034 324.288H61.1514C60.0954 322.144 58.1754 321.088 55.7754 321.088C51.8714 321.088 49.0874 323.936 49.0874 328.48C49.0874 332.992 51.8714 335.872 55.7754 335.872C58.1754 335.872 60.0954 334.816 61.1514 332.64H66.3034C64.7994 337.248 60.7674 339.872 55.8074 339.872C49.3754 339.872 44.4794 335.168 44.4794 328.48ZM87.2499 330.816C87.2499 336.384 83.1539 339.968 78.0019 339.968C72.8819 339.968 69.0099 336.384 69.0099 330.816C69.0099 325.216 73.0099 321.664 78.1299 321.664C83.2499 321.664 87.2499 325.216 87.2499 330.816ZM73.5539 330.816C73.5539 334.336 75.6019 336.064 78.0019 336.064C80.3699 336.064 82.6419 334.336 82.6419 330.816C82.6419 327.264 80.4339 325.568 78.0659 325.568C75.6979 325.568 73.5539 327.264 73.5539 330.816ZM102.952 339.68V329.888C102.952 327.04 101.384 325.504 99.0161 325.504C96.5841 325.504 95.0161 327.04 95.0161 329.888V339.68H90.5361V321.952H95.0161V324.16C96.1681 322.656 98.0881 321.696 100.36 321.696C104.488 321.696 107.432 324.384 107.432 329.28V339.68H102.952ZM110.54 330.752C110.54 325.216 114.124 321.664 118.636 321.664C121.42 321.664 123.436 322.944 124.492 324.48V321.952H129.004V339.808C129.004 344.608 126.06 348.416 120.236 348.416C115.244 348.416 111.756 345.92 111.308 341.856H115.756C116.204 343.456 117.868 344.512 120.108 344.512C122.572 344.512 124.492 343.104 124.492 339.808V337.056C123.436 338.592 121.42 339.968 118.636 339.968C114.124 339.968 110.54 336.288 110.54 330.752ZM124.492 330.816C124.492 327.456 122.252 325.6 119.788 325.6C117.388 325.6 115.116 327.392 115.116 330.752C115.116 334.112 117.388 336.032 119.788 336.032C122.252 336.032 124.492 334.176 124.492 330.816ZM137.86 330.848V339.68H133.38V321.952H137.86V324.704C138.98 322.88 140.836 321.696 143.3 321.696V326.4H142.116C139.46 326.4 137.86 327.424 137.86 330.848ZM145.165 330.752C145.165 325.216 148.749 321.664 153.261 321.664C156.109 321.664 158.061 323.008 159.117 324.48V321.952H163.629V339.68H159.117V337.088C158.061 338.624 156.045 339.968 153.229 339.968C148.749 339.968 145.165 336.288 145.165 330.752ZM159.117 330.816C159.117 327.456 156.877 325.6 154.413 325.6C152.013 325.6 149.741 327.392 149.741 330.752C149.741 334.112 152.013 336.032 154.413 336.032C156.877 336.032 159.117 334.176 159.117 330.816ZM168.709 334.176V325.632H166.597V321.952H168.709V317.568H173.221V321.952H177.189V325.632H173.221V334.208C173.221 335.392 173.701 335.904 175.109 335.904H177.189V339.68H174.373C170.981 339.68 168.709 338.24 168.709 334.176ZM194.171 334.624C194.171 337.664 191.515 339.968 187.195 339.968C182.747 339.968 179.643 337.376 179.451 334.08H183.963C184.123 335.424 185.371 336.448 187.163 336.448C188.923 336.448 189.883 335.648 189.883 334.624C189.883 331.456 179.867 333.472 179.867 326.976C179.867 324.032 182.491 321.664 186.875 321.664C191.163 321.664 193.755 324 194.011 327.52H189.723C189.595 326.144 188.507 325.216 186.747 325.216C185.083 325.216 184.219 325.888 184.219 326.912C184.219 330.144 194.043 328.128 194.171 334.624Z" fill="url(#paint0_linear_65_1466)"/>
<path d="M34.2307 362.404L31.2277 356.645H32.8787L34.9717 361.078L37.0647 356.645H38.7027L35.7127 362.404V365.68H34.2307V362.404ZM46.7038 362.092C46.7038 364.341 45.0398 365.797 42.9858 365.797C40.9448 365.797 39.3978 364.341 39.3978 362.092C39.3978 359.843 41.0098 358.4 43.0508 358.4C45.0918 358.4 46.7038 359.843 46.7038 362.092ZM40.9058 362.092C40.9058 363.717 41.8678 364.51 42.9858 364.51C44.0908 364.51 45.1828 363.717 45.1828 362.092C45.1828 360.467 44.1298 359.687 43.0248 359.687C41.9068 359.687 40.9058 360.467 40.9058 362.092ZM54.6558 358.517V365.68H53.1738V364.822C52.7058 365.433 51.8998 365.784 51.0548 365.784C49.3778 365.784 48.1038 364.731 48.1038 362.729V358.517H49.5728V362.508C49.5728 363.821 50.2878 364.497 51.3668 364.497C52.4588 364.497 53.1738 363.821 53.1738 362.508V358.517H54.6558ZM57.0922 359.739H56.0522L56.8452 356.645H58.4572L57.0922 359.739ZM59.7597 365.68V356.06H61.2417V365.68H59.7597ZM63.1874 365.68V356.06H64.6694V365.68H63.1874ZM71.4741 359.583C71.9421 358.933 72.8391 358.4 73.9701 358.4C75.8681 358.4 77.3371 359.856 77.3371 362.066C77.3371 364.276 75.8551 365.797 73.9701 365.797C72.7871 365.797 71.9421 365.264 71.4741 364.64V365.68H69.9921V356.06H71.4741V359.583ZM75.8291 362.066C75.8291 360.519 74.7631 359.687 73.6451 359.687C72.5401 359.687 71.4741 360.558 71.4741 362.092C71.4741 363.639 72.5401 364.51 73.6451 364.51C74.7631 364.51 75.8291 363.613 75.8291 362.066ZM81.8186 359.648C80.8176 359.648 80.0116 360.324 79.8556 361.455H83.8206C83.7946 360.35 82.9236 359.648 81.8186 359.648ZM85.1726 363.548C84.7696 364.796 83.6386 365.797 81.8836 365.797C79.8296 365.797 78.3086 364.341 78.3086 362.092C78.3086 359.843 79.7646 358.4 81.8836 358.4C83.9246 358.4 85.3676 359.817 85.3676 361.923C85.3676 362.17 85.3546 362.404 85.3156 362.651H79.8426C79.9466 363.834 80.7916 364.549 81.8836 364.549C82.7936 364.549 83.3006 364.107 83.5736 363.548H85.1726ZM91.685 361.91V365.68H90.203V358.517H91.685V359.557C92.101 358.842 92.816 358.4 93.83 358.4V359.934H93.453C92.361 359.934 91.685 360.389 91.685 361.91ZM98.2083 359.648C97.2073 359.648 96.4013 360.324 96.2453 361.455H100.21C100.184 360.35 99.3133 359.648 98.2083 359.648ZM101.562 363.548C101.159 364.796 100.028 365.797 98.2733 365.797C96.2193 365.797 94.6983 364.341 94.6983 362.092C94.6983 359.843 96.1543 358.4 98.2733 358.4C100.314 358.4 101.757 359.817 101.757 361.923C101.757 362.17 101.744 362.404 101.705 362.651H96.2323C96.3363 363.834 97.1813 364.549 98.2733 364.549C99.1833 364.549 99.6903 364.107 99.9633 363.548H101.562ZM102.722 362.066C102.722 359.856 104.217 358.4 106.115 358.4C107.051 358.4 108.039 358.842 108.585 359.518V356.06H110.08V365.68H108.585V364.601C108.13 365.251 107.272 365.797 106.102 365.797C104.217 365.797 102.722 364.276 102.722 362.066ZM108.585 362.092C108.585 360.558 107.532 359.687 106.414 359.687C105.309 359.687 104.243 360.519 104.243 362.066C104.243 363.613 105.309 364.51 106.414 364.51C107.532 364.51 108.585 363.639 108.585 362.092ZM112.026 365.68V358.517H113.508V365.68H112.026ZM112.78 357.568C112.247 357.568 111.831 357.152 111.831 356.619C111.831 356.086 112.247 355.67 112.78 355.67C113.3 355.67 113.716 356.086 113.716 356.619C113.716 357.152 113.3 357.568 112.78 357.568ZM116.936 361.91V365.68H115.454V358.517H116.936V359.557C117.352 358.842 118.067 358.4 119.081 358.4V359.934H118.704C117.612 359.934 116.936 360.389 116.936 361.91ZM123.459 359.648C122.458 359.648 121.652 360.324 121.496 361.455H125.461C125.435 360.35 124.564 359.648 123.459 359.648ZM126.813 363.548C126.41 364.796 125.279 365.797 123.524 365.797C121.47 365.797 119.949 364.341 119.949 362.092C119.949 359.843 121.405 358.4 123.524 358.4C125.565 358.4 127.008 359.817 127.008 361.923C127.008 362.17 126.995 362.404 126.956 362.651H121.483C121.587 363.834 122.432 364.549 123.524 364.549C124.434 364.549 124.941 364.107 125.214 363.548H126.813ZM127.973 362.092C127.973 359.856 129.429 358.4 131.483 358.4C133.238 358.4 134.382 359.271 134.785 360.779H133.186C132.939 360.09 132.367 359.648 131.483 359.648C130.287 359.648 129.494 360.532 129.494 362.092C129.494 363.665 130.287 364.549 131.483 364.549C132.367 364.549 132.913 364.159 133.186 363.418H134.785C134.382 364.822 133.238 365.797 131.483 365.797C129.429 365.797 127.973 364.341 127.973 362.092ZM136.496 363.691V359.726H135.651V358.517H136.496V356.736H137.991V358.517H139.733V359.726H137.991V363.691C137.991 364.224 138.199 364.445 138.823 364.445H139.733V365.68H138.563C137.289 365.68 136.496 365.147 136.496 363.691ZM144.115 359.648C143.114 359.648 142.308 360.324 142.152 361.455H146.117C146.091 360.35 145.22 359.648 144.115 359.648ZM147.469 363.548C147.066 364.796 145.935 365.797 144.18 365.797C142.126 365.797 140.605 364.341 140.605 362.092C140.605 359.843 142.061 358.4 144.18 358.4C146.221 358.4 147.664 359.817 147.664 361.923C147.664 362.17 147.651 362.404 147.612 362.651H142.139C142.243 363.834 143.088 364.549 144.18 364.549C145.09 364.549 145.597 364.107 145.87 363.548H147.469ZM148.628 362.066C148.628 359.856 150.123 358.4 152.021 358.4C152.957 358.4 153.945 358.842 154.491 359.518V356.06H155.986V365.68H154.491V364.601C154.036 365.251 153.178 365.797 152.008 365.797C150.123 365.797 148.628 364.276 148.628 362.066ZM154.491 362.092C154.491 360.558 153.438 359.687 152.32 359.687C151.215 359.687 150.149 360.519 150.149 362.066C150.149 363.613 151.215 364.51 152.32 364.51C153.438 364.51 154.491 363.639 154.491 362.092ZM166.652 363.678C166.652 364.887 165.599 365.797 163.909 365.797C162.193 365.797 160.984 364.783 160.919 363.483H162.453C162.505 364.068 163.064 364.549 163.883 364.549C164.741 364.549 165.196 364.185 165.196 363.691C165.196 362.287 161.036 363.093 161.036 360.467C161.036 359.323 162.102 358.4 163.792 358.4C165.417 358.4 166.483 359.271 166.561 360.701H165.079C165.027 360.077 164.546 359.648 163.74 359.648C162.947 359.648 162.531 359.973 162.531 360.454C162.531 361.897 166.574 361.091 166.652 363.678ZM168.254 365.68V356.06H169.736V359.349C170.23 358.751 171.036 358.4 171.959 358.4C173.558 358.4 174.806 359.453 174.806 361.455V365.68H173.337V361.676C173.337 360.363 172.622 359.687 171.543 359.687C170.451 359.687 169.736 360.363 169.736 361.676V365.68H168.254ZM183.521 362.092C183.521 364.341 181.857 365.797 179.803 365.797C177.762 365.797 176.215 364.341 176.215 362.092C176.215 359.843 177.827 358.4 179.868 358.4C181.909 358.4 183.521 359.843 183.521 362.092ZM177.723 362.092C177.723 363.717 178.685 364.51 179.803 364.51C180.908 364.51 182 363.717 182 362.092C182 360.467 180.947 359.687 179.842 359.687C178.724 359.687 177.723 360.467 177.723 362.092ZM186.468 361.91V365.68H184.986V358.517H186.468V359.557C186.884 358.842 187.599 358.4 188.613 358.4V359.934H188.236C187.144 359.934 186.468 360.389 186.468 361.91ZM190.209 363.691V359.726H189.364V358.517H190.209V356.736H191.704V358.517H193.446V359.726H191.704V363.691C191.704 364.224 191.912 364.445 192.536 364.445H193.446V365.68H192.276C191.002 365.68 190.209 365.147 190.209 363.691ZM194.812 365.68V356.06H196.294V365.68H194.812ZM201.061 363.977L203.154 358.517H204.688L200.294 369.047H198.76L200.216 365.563L197.395 358.517H199.046L201.061 363.977ZM207.341 364.822C207.341 365.355 206.925 365.771 206.405 365.771C205.872 365.771 205.456 365.355 205.456 364.822C205.456 364.289 205.872 363.873 206.405 363.873C206.925 363.873 207.341 364.289 207.341 364.822Z" fill="#939FA5"/>
<path d="M138.5 395.68C138.5 406.173 129.993 414.68 119.5 414.68C109.007 414.68 100.5 406.173 100.5 395.68C100.5 385.187 109.007 376.68 119.5 376.68C129.993 376.68 138.5 385.187 138.5 395.68ZM105.622 395.68C105.622 403.345 111.835 409.558 119.5 409.558C127.165 409.558 133.378 403.345 133.378 395.68C133.378 388.015 127.165 381.802 119.5 381.802C111.835 381.802 105.622 388.015 105.622 395.68Z" fill="#F0F0F0"/>
<path d="M138.5 395.68C138.5 391.922 137.386 388.249 135.298 385.124C133.21 382 130.243 379.564 126.771 378.126C123.299 376.688 119.479 376.312 115.793 377.045C112.108 377.778 108.722 379.588 106.065 382.245L109.687 385.867C111.628 383.926 114.1 382.604 116.793 382.069C119.485 381.533 122.275 381.808 124.811 382.858C127.347 383.909 129.514 385.688 131.039 387.97C132.564 390.252 133.378 392.935 133.378 395.68H138.5Z" fill="#9158C0"/>
<defs>
<linearGradient id="paint0_linear_65_1466" x1="6.5" y1="298.68" x2="198.5" y2="353.18" gradientUnits="userSpaceOnUse">
<stop stop-color="#9158C0"/>
<stop offset="1" stop-color="#8E88F5"/>
</linearGradient>
</defs>
</svg>
