<svg width="239" height="300" viewBox="0 0 239 300" fill="none" xmlns="http://www.w3.org/2000/svg">
<path d="M137.727 11.7351C137.727 11.7351 118.978 53.8166 69.3951 44.1765C19.8126 34.5364 -10.0608 102.359 36.8153 127.088C83.6914 151.817 51.2051 180.226 82.4682 194.737C118.001 211.229 131.251 156.081 157.429 161.203C215.203 172.507 250.941 153.12 235.138 127.03C207.399 81.2327 187.258 82.9187 195.443 53.3438C203.628 23.769 157.405 -21.6335 137.727 11.7351Z" fill="#F2F1FF"/>
<path d="M170.683 95.1624C166.327 103.512 123.221 120.567 110.006 128.852C109.903 128.919 109.826 129.018 109.787 129.135C107.676 135.68 104.102 141.659 99.3365 146.617C99.2723 146.683 99.2271 146.766 99.2058 146.855C99.1845 146.945 99.1877 147.039 99.2152 147.126C100.694 152.049 102.295 160.924 97.8411 168.198C91.2942 178.908 86.4451 172.442 87.455 170.017C88.3197 167.939 95.7074 163.478 94.0019 152.332C93.9876 152.243 93.9505 152.159 93.8943 152.088C93.8381 152.017 93.7647 151.962 93.681 151.928C93.5974 151.894 93.5064 151.882 93.4168 151.893C93.3272 151.904 93.242 151.939 93.1693 151.992C87.8146 155.879 81.6686 158.537 75.1693 159.776C75.0971 159.788 75.0283 159.815 74.9673 159.856C74.9064 159.896 74.8547 159.949 74.8158 160.011C74.7768 160.073 74.7514 160.142 74.7413 160.215C74.7311 160.287 74.7365 160.361 74.757 160.431C76.414 166.364 77.198 175.635 70.2792 184.162C66.5854 188.607 61.6873 182.109 66.5854 177.68C69.6244 174.94 69.3901 167.059 67.9675 160.989C67.9404 160.871 67.8731 160.767 67.7773 160.693C67.6814 160.619 67.5629 160.581 67.4421 160.585C67.1593 160.593 66.8681 160.593 66.5854 160.593C56.588 160.608 46.8683 157.304 38.9507 151.2C38.8783 151.144 38.7924 151.107 38.7014 151.093C38.6105 151.08 38.5176 151.091 38.432 151.124C38.3464 151.158 38.2709 151.213 38.2131 151.284C38.1552 151.356 38.1169 151.441 38.102 151.532C36.2025 164.076 43.744 168.416 44.8187 171.633C46.015 175.23 43.2668 178.431 39.8802 177.526C39.8067 177.504 39.7382 177.468 39.6782 177.42C28.6372 169.128 29.599 151.75 30.8114 143.384C30.8225 143.316 30.8188 143.246 30.8007 143.179C30.7826 143.112 30.7504 143.05 30.7062 142.996C24.5319 135.051 21.1892 125.27 21.2091 115.208C21.2091 96.7551 32.2258 80.8726 48.0437 73.7841L48.0468 73.7836L48.0495 73.7819L48.0512 73.7792L48.0518 73.7761C50.4846 70.6961 53.4511 66.34 53.9038 63.2848C53.9187 63.1813 53.9642 63.0846 54.0344 63.007C54.1045 62.9295 54.1962 62.8746 54.2977 62.8494C54.3992 62.8243 54.5059 62.8299 54.6042 62.8657C54.7025 62.9015 54.7878 62.9658 54.8494 63.0503C56.0133 64.6183 57.8159 67.609 57.4198 70.7612C57.4036 70.8662 57.3956 70.9712 57.3793 71.0764C57.347 71.2543 57.3067 71.424 57.2662 71.6018C57.2257 71.7393 57.1934 71.8766 57.145 72.0141C57.7102 71.5424 58.2496 71.0405 58.7607 70.5106C59.9488 69.2902 61.4522 67.4554 62.0989 65.4913C62.1295 65.3866 62.1918 65.2938 62.2772 65.2259C62.3627 65.158 62.4671 65.1182 62.5761 65.1121C62.6851 65.106 62.7933 65.1337 62.8858 65.1916C62.9784 65.2495 63.0507 65.3347 63.0929 65.4353C63.5129 66.4699 64.0062 67.9167 64.1759 69.3958C64.1905 69.5285 64.2542 69.6509 64.3543 69.7391C64.4545 69.8273 64.584 69.8749 64.7174 69.8726C65.3399 69.8484 65.9622 69.8323 66.5846 69.8323C91.6489 69.8323 111.969 90.1522 111.969 115.209C111.969 115.783 111.961 116.348 111.936 116.914C111.933 117 111.95 117.086 111.988 117.164C112.025 117.242 112.08 117.31 112.15 117.362C112.219 117.414 112.3 117.448 112.385 117.461C112.47 117.475 112.558 117.467 112.64 117.439C115.339 116.494 160.749 101.597 162.802 96.1732C166.641 86.0698 167.045 83.241 165.833 75.3602C164.621 67.4795 170.481 67.8842 171.693 70.5106C172.905 73.137 175.533 85.8672 170.683 95.1624Z" fill="#9158C0"/>
<path d="M48.8588 119.189C48.7042 119.188 48.554 119.137 48.4317 119.043C48.3093 118.948 48.2217 118.816 48.1824 118.666C47.8776 117.335 47.8122 115.961 47.9891 114.606C48.3871 111.663 49.9887 109.5 52.6208 108.35C54.3409 107.599 55.9668 107.556 57.4534 108.222C60.5002 109.588 61.7973 113.46 61.851 113.624C61.9031 113.798 61.885 113.987 61.8004 114.148C61.7157 114.31 61.5714 114.432 61.3981 114.489C61.2247 114.546 61.0361 114.532 60.8722 114.452C60.7084 114.372 60.5824 114.231 60.521 114.059C60.51 114.026 59.3562 110.605 56.8766 109.497C55.7664 109.002 54.5233 109.047 53.1817 109.633C51.0037 110.585 49.7255 112.307 49.3828 114.752C49.2262 115.939 49.2786 117.144 49.5376 118.313C49.5842 118.492 49.5576 118.683 49.4637 118.843C49.3697 119.003 49.216 119.12 49.0364 119.167C48.9784 119.181 48.9187 119.189 48.8588 119.189Z" fill="white"/>
<path d="M69.9605 112.778C69.8138 112.778 69.6709 112.732 69.5519 112.646C69.4329 112.561 69.3438 112.44 69.2972 112.301C68.9065 110.998 68.7519 109.635 68.8408 108.278C69.0473 105.328 70.5055 103.074 73.0579 101.76C74.7289 100.901 76.3509 100.752 77.8799 101.322C81.0019 102.484 82.545 106.239 82.6091 106.398C82.6764 106.57 82.6732 106.762 82.6001 106.931C82.527 107.1 82.3901 107.234 82.2189 107.303C82.0478 107.372 81.8564 107.371 81.6863 107.299C81.5162 107.228 81.3812 107.092 81.3106 106.922C81.2966 106.889 79.9275 103.574 77.3862 102.632C76.2433 102.208 75.0029 102.334 73.6986 103.005C71.5873 104.092 70.4239 105.884 70.2406 108.334C70.1615 109.522 70.2918 110.715 70.6255 111.858C70.6602 111.963 70.6695 112.075 70.6526 112.184C70.6357 112.294 70.593 112.398 70.5281 112.488C70.4633 112.578 70.378 112.651 70.2794 112.701C70.1808 112.752 70.0716 112.778 69.9608 112.778H69.9605Z" fill="white"/>
<path d="M70.2107 116.598C74.9751 116.598 78.6078 119.769 78.7897 119.93C78.8584 119.991 78.9145 120.065 78.9546 120.148C78.9948 120.23 79.0182 120.32 79.0237 120.412C79.0291 120.504 79.0164 120.596 78.9864 120.683C78.9563 120.769 78.9094 120.85 78.8483 120.918C78.7873 120.987 78.7133 121.043 78.6306 121.083C78.5479 121.123 78.4581 121.147 78.3664 121.152C78.2746 121.158 78.1826 121.145 78.0958 121.115C78.0089 121.085 77.9288 121.038 77.8601 120.977C77.8123 120.935 73.0151 116.765 67.6139 118.375C62.2379 119.977 60.7635 126.803 60.7491 126.872C60.7099 127.052 60.6012 127.209 60.4468 127.31C60.2923 127.41 60.1045 127.446 59.924 127.409C59.7435 127.371 59.585 127.265 59.4828 127.111C59.3805 126.958 59.3429 126.771 59.3779 126.59C59.7108 125.176 60.2321 123.813 60.9279 122.538C62.4648 119.704 64.6379 117.801 67.2139 117.034C68.1864 116.744 69.1959 116.597 70.2107 116.598Z" fill="white"/>
<path d="M145.008 79.2697C145.46 77.8171 146.001 76.394 146.629 75.0087C155.232 55.9416 177.652 47.4623 196.719 56.0655C215.779 64.6648 224.266 87.0885 215.662 106.156C215.114 107.371 214.506 108.542 213.856 109.668C225.954 123.674 219.901 142.81 216.49 144.197C213.045 145.604 210.409 142.935 212.348 137.008C215.024 128.364 211.582 119.7 209.443 115.755C198.73 127.805 181.044 132.08 165.572 125.099C150.557 118.325 142.114 102.979 143.398 87.4555C140.186 87.7353 134.194 89.4211 127.667 97.0283C126.616 98.6113 126.112 99.8469 125.874 100.609C125.66 101.323 125.195 101.935 124.565 102.332C123.392 103.045 121.498 103.627 119.822 101.505C119.441 101.021 119.181 100.453 119.065 99.8481C118.949 99.2434 118.98 98.6197 119.155 98.0294C120.55 93.3467 127.401 82.8797 145.008 79.2697Z" fill="#8E88F5"/>
<path d="M156.831 97.4428C158.051 96.1981 166.201 96.8513 175.03 98.8999C183.866 100.95 190.039 103.621 188.819 104.865C188.588 105.097 188.117 105.268 187.443 105.368C187.258 105.394 186.991 105.386 186.696 105.344C186.401 105.303 186.101 105.231 185.857 105.144C182.763 104.048 177.8 102.657 172.024 101.316C166.708 100.083 161.751 99.1368 158.111 98.6188C157.815 98.5768 157.513 98.5045 157.269 98.4169C157.025 98.3294 156.857 98.2333 156.8 98.1485C156.626 97.8822 156.636 97.6424 156.831 97.4428Z" fill="white"/>
<path d="M170.66 91.7712C170.559 91.7713 170.458 91.7494 170.366 91.7068C170.274 91.6643 170.192 91.6022 170.126 91.5248C170.06 91.4475 170.012 91.3567 169.985 91.2589C169.958 91.161 169.952 91.0584 169.969 90.9582C170.203 89.5209 169.858 88.0491 169.008 86.8666C168.157 85.6841 166.872 84.8878 165.435 84.6529C163.998 84.4179 162.526 84.7636 161.343 85.6138C160.161 86.464 159.365 87.7492 159.13 89.1865C159.1 89.3697 158.998 89.5335 158.847 89.6419C158.697 89.7503 158.509 89.7943 158.326 89.7644C158.143 89.7344 157.979 89.6329 157.87 89.4821C157.762 89.3314 157.718 89.1438 157.748 88.9606C158.043 87.1568 159.042 85.544 160.526 84.4771C162.01 83.4101 163.857 82.9763 165.661 83.2712C167.465 83.566 169.077 84.5653 170.144 86.0493C171.211 87.5332 171.645 89.3803 171.35 91.184C171.323 91.3478 171.239 91.4967 171.113 91.6043C170.987 91.7118 170.826 91.771 170.66 91.7712Z" fill="white"/>
<path d="M187.452 94.5163C187.35 94.5162 187.25 94.4941 187.158 94.4514C187.066 94.4088 186.984 94.3467 186.918 94.2694C186.853 94.1921 186.804 94.1014 186.777 94.0036C186.75 93.9059 186.744 93.8034 186.76 93.7032C186.989 92.2684 186.641 90.8014 185.79 89.6233C184.94 88.4453 183.657 87.6522 182.223 87.4178C180.79 87.1834 179.321 87.5269 178.14 88.3728C176.959 89.2188 176.161 90.4985 175.921 91.9315C175.907 92.0224 175.875 92.1096 175.826 92.188C175.778 92.2665 175.715 92.3346 175.64 92.3885C175.565 92.4424 175.481 92.481 175.391 92.5021C175.301 92.5233 175.208 92.5265 175.117 92.5117C175.026 92.4968 174.939 92.4641 174.861 92.4156C174.783 92.367 174.715 92.3034 174.661 92.2285C174.608 92.1537 174.569 92.0689 174.548 91.9792C174.528 91.8895 174.525 91.7965 174.54 91.7057C174.84 89.9065 175.841 88.2996 177.323 87.2371C178.806 86.1746 180.649 85.7432 182.449 86.0375C184.249 86.3317 185.859 87.3276 186.926 88.8069C187.993 90.2861 188.431 92.1281 188.142 93.9291C188.115 94.0929 188.031 94.2419 187.905 94.3494C187.778 94.457 187.618 94.5161 187.452 94.5163Z" fill="white"/>
<path d="M68.6104 231.826L67.1384 227.57H58.2424L56.7704 231.826H52.0664L60.0984 209.458H65.3144L73.3464 231.826H68.6104ZM65.9224 223.986L62.6904 214.642L59.4584 223.986H65.9224ZM75.1966 222.962C75.1966 217.394 78.8446 213.81 83.9646 213.81C88.3806 213.81 91.3566 216.114 92.3166 220.082H87.4846C86.9726 218.578 85.7886 217.618 83.9326 217.618C81.4366 217.618 79.7726 219.506 79.7726 222.962C79.7726 226.418 81.4366 228.274 83.9326 228.274C85.7886 228.274 86.9406 227.442 87.4846 225.842H92.3166C91.3566 229.618 88.3806 232.114 83.9646 232.114C78.8446 232.114 75.1966 228.53 75.1966 222.962ZM94.4466 222.962C94.4466 217.394 98.0946 213.81 103.215 213.81C107.631 213.81 110.607 216.114 111.567 220.082H106.735C106.223 218.578 105.039 217.618 103.183 217.618C100.687 217.618 99.0226 219.506 99.0226 222.962C99.0226 226.418 100.687 228.274 103.183 228.274C105.039 228.274 106.191 227.442 106.735 225.842H111.567C110.607 229.618 107.631 232.114 103.215 232.114C98.0946 232.114 94.4466 228.53 94.4466 222.962ZM131.969 222.962C131.969 228.53 127.873 232.114 122.721 232.114C117.601 232.114 113.729 228.53 113.729 222.962C113.729 217.362 117.729 213.81 122.849 213.81C127.969 213.81 131.969 217.362 131.969 222.962ZM118.273 222.962C118.273 226.482 120.321 228.21 122.721 228.21C125.089 228.21 127.361 226.482 127.361 222.962C127.361 219.41 125.153 217.714 122.785 217.714C120.417 217.714 118.273 219.41 118.273 222.962ZM151.991 214.098V231.826H147.479V229.586C146.359 231.09 144.407 232.05 142.199 232.05C138.071 232.05 135.095 229.362 135.095 224.498V214.098H139.575V223.858C139.575 226.706 141.143 228.242 143.511 228.242C145.943 228.242 147.479 226.706 147.479 223.858V214.098H151.991ZM168.827 231.826V222.034C168.827 219.186 167.259 217.65 164.891 217.65C162.459 217.65 160.891 219.186 160.891 222.034V231.826H156.411V214.098H160.891V216.306C162.043 214.802 163.963 213.842 166.235 213.842C170.363 213.842 173.307 216.53 173.307 221.426V231.826H168.827ZM178.271 226.322V217.778H176.159V214.098H178.271V209.714H182.783V214.098H186.751V217.778H182.783V226.354C182.783 227.538 183.263 228.05 184.671 228.05H186.751V231.826H183.935C180.543 231.826 178.271 230.386 178.271 226.322ZM29.7035 247.49C36.8395 247.49 41.4795 251.906 41.4795 258.69C41.4795 265.442 36.8395 269.826 29.7035 269.826H21.8955V247.49H29.7035ZM26.3755 266.018H29.5435C34.2475 266.018 36.9035 263.33 36.9035 258.69C36.9035 254.05 34.2475 251.266 29.5435 251.266H26.3755V266.018ZM52.449 255.49C50.305 255.49 48.609 256.866 48.257 259.298H56.673C56.609 256.962 54.753 255.49 52.449 255.49ZM60.865 264.258C59.905 267.522 56.961 270.114 52.577 270.114C47.425 270.114 43.681 266.53 43.681 260.962C43.681 255.362 47.329 251.81 52.577 251.81C57.697 251.81 61.313 255.298 61.313 260.578C61.313 261.154 61.281 261.73 61.185 262.306H48.225C48.449 264.93 50.241 266.402 52.481 266.402C54.401 266.402 55.457 265.442 56.033 264.258H60.865ZM63.431 260.898C63.431 255.362 67.015 251.81 71.527 251.81C74.375 251.81 76.327 253.154 77.383 254.626V252.098H81.895V269.826H77.383V267.234C76.327 268.77 74.311 270.114 71.495 270.114C67.015 270.114 63.431 266.434 63.431 260.898ZM77.383 260.962C77.383 257.602 75.143 255.746 72.679 255.746C70.279 255.746 68.007 257.538 68.007 260.898C68.007 264.258 70.279 266.178 72.679 266.178C75.143 266.178 77.383 264.322 77.383 260.962ZM85.1185 260.962C85.1185 255.394 88.7665 251.81 93.8865 251.81C98.3025 251.81 101.279 254.114 102.239 258.082H97.4065C96.8945 256.578 95.7105 255.618 93.8545 255.618C91.3585 255.618 89.6945 257.506 89.6945 260.962C89.6945 264.418 91.3585 266.274 93.8545 266.274C95.7105 266.274 96.8625 265.442 97.4065 263.842H102.239C101.279 267.618 98.3025 270.114 93.8865 270.114C88.7665 270.114 85.1185 266.53 85.1185 260.962ZM106.225 264.322V255.778H104.113V252.098H106.225V247.714H110.737V252.098H114.705V255.778H110.737V264.354C110.737 265.538 111.217 266.05 112.625 266.05H114.705V269.826H111.889C108.497 269.826 106.225 268.386 106.225 264.322ZM117.927 269.826V252.098H122.407V269.826H117.927ZM120.199 249.986C118.599 249.986 117.447 248.834 117.447 247.362C117.447 245.89 118.599 244.738 120.199 244.738C121.767 244.738 122.951 245.89 122.951 247.362C122.951 248.834 121.767 249.986 120.199 249.986ZM124.945 252.098H129.745L134.225 265.698L138.705 252.098H143.473L136.913 269.826H131.473L124.945 252.098ZM144.837 260.898C144.837 255.362 148.421 251.81 152.933 251.81C155.781 251.81 157.733 253.154 158.789 254.626V252.098H163.301V269.826H158.789V267.234C157.733 268.77 155.717 270.114 152.901 270.114C148.421 270.114 144.837 266.434 144.837 260.898ZM158.789 260.962C158.789 257.602 156.549 255.746 154.085 255.746C151.685 255.746 149.413 257.538 149.413 260.898C149.413 264.258 151.685 266.178 154.085 266.178C156.549 266.178 158.789 264.322 158.789 260.962ZM168.381 264.322V255.778H166.269V252.098H168.381V247.714H172.893V252.098H176.861V255.778H172.893V264.354C172.893 265.538 173.373 266.05 174.781 266.05H176.861V269.826H174.045C170.653 269.826 168.381 268.386 168.381 264.322ZM187.699 255.49C185.555 255.49 183.859 256.866 183.507 259.298H191.923C191.859 256.962 190.003 255.49 187.699 255.49ZM196.115 264.258C195.155 267.522 192.211 270.114 187.827 270.114C182.675 270.114 178.931 266.53 178.931 260.962C178.931 255.362 182.579 251.81 187.827 251.81C192.947 251.81 196.563 255.298 196.563 260.578C196.563 261.154 196.531 261.73 196.435 262.306H183.475C183.699 264.93 185.491 266.402 187.731 266.402C189.651 266.402 190.707 265.442 191.283 264.258H196.115ZM198.681 260.898C198.681 255.362 202.265 251.81 206.809 251.81C209.145 251.81 211.385 252.898 212.601 254.562V246.146H217.145V269.826H212.601V267.202C211.545 268.834 209.561 270.114 206.777 270.114C202.265 270.114 198.681 266.434 198.681 260.898ZM212.633 260.962C212.633 257.602 210.393 255.746 207.929 255.746C205.529 255.746 203.257 257.538 203.257 260.898C203.257 264.258 205.529 266.178 207.929 266.178C210.393 266.178 212.633 264.322 212.633 260.962Z" fill="url(#paint0_linear_68_1078)"/>
<path d="M37.2177 295.839L34.6567 286.791H36.2297L38.1017 294.149L40.1297 286.791H41.7937L43.6787 294.11L45.5637 286.791H47.1497L44.4717 295.826H42.7947L40.8967 288.988L38.8817 295.826L37.2177 295.839ZM51.388 289.794C50.387 289.794 49.581 290.47 49.425 291.601H53.39C53.364 290.496 52.493 289.794 51.388 289.794ZM54.742 293.694C54.339 294.942 53.208 295.943 51.453 295.943C49.399 295.943 47.878 294.487 47.878 292.238C47.878 289.989 49.334 288.546 51.453 288.546C53.494 288.546 54.937 289.963 54.937 292.069C54.937 292.316 54.924 292.55 54.885 292.797H49.412C49.516 293.98 50.361 294.695 51.453 294.695C52.363 294.695 52.87 294.253 53.143 293.694H54.742ZM59.7724 295.826V286.206H61.2544V289.495C61.7484 288.897 62.5544 288.546 63.4774 288.546C65.0764 288.546 66.3244 289.599 66.3244 291.601V295.826H64.8554V291.822C64.8554 290.509 64.1404 289.833 63.0614 289.833C61.9694 289.833 61.2544 290.509 61.2544 291.822V295.826H59.7724ZM75.0397 292.238C75.0397 294.487 73.3757 295.943 71.3217 295.943C69.2807 295.943 67.7337 294.487 67.7337 292.238C67.7337 289.989 69.3457 288.546 71.3867 288.546C73.4277 288.546 75.0397 289.989 75.0397 292.238ZM69.2417 292.238C69.2417 293.863 70.2037 294.656 71.3217 294.656C72.4267 294.656 73.5187 293.863 73.5187 292.238C73.5187 290.613 72.4657 289.833 71.3607 289.833C70.2427 289.833 69.2417 290.613 69.2417 292.238ZM77.9868 289.716C78.4418 289.118 79.3128 288.546 80.4828 288.546C82.3678 288.546 83.8498 290.002 83.8498 292.212C83.8498 294.422 82.3678 295.943 80.4828 295.943C79.2998 295.943 78.4548 295.345 77.9868 294.786V299.232H76.5048V288.663H77.9868V289.716ZM82.3418 292.212C82.3418 290.665 81.2758 289.833 80.1578 289.833C79.0528 289.833 77.9868 290.704 77.9868 292.238C77.9868 293.785 79.0528 294.656 80.1578 294.656C81.2758 294.656 82.3418 293.759 82.3418 292.212ZM88.3313 289.794C87.3303 289.794 86.5243 290.47 86.3683 291.601H90.3333C90.3073 290.496 89.4363 289.794 88.3313 289.794ZM91.6853 293.694C91.2823 294.942 90.1513 295.943 88.3963 295.943C86.3423 295.943 84.8213 294.487 84.8213 292.238C84.8213 289.989 86.2773 288.546 88.3963 288.546C90.4373 288.546 91.8803 289.963 91.8803 292.069C91.8803 292.316 91.8673 292.55 91.8283 292.797H86.3553C86.4593 293.98 87.3043 294.695 88.3963 294.695C89.3063 294.695 89.8133 294.253 90.0863 293.694H91.6853ZM96.9497 293.837V289.872H96.1047V288.663H96.9497V286.882H98.4447V288.663H100.187V289.872H98.4447V293.837C98.4447 294.37 98.6527 294.591 99.2767 294.591H100.187V295.826H99.0167C97.7427 295.826 96.9497 295.293 96.9497 293.837ZM108.378 292.238C108.378 294.487 106.714 295.943 104.66 295.943C102.619 295.943 101.072 294.487 101.072 292.238C101.072 289.989 102.684 288.546 104.725 288.546C106.766 288.546 108.378 289.989 108.378 292.238ZM102.58 292.238C102.58 293.863 103.542 294.656 104.66 294.656C105.765 294.656 106.857 293.863 106.857 292.238C106.857 290.613 105.804 289.833 104.699 289.833C103.581 289.833 102.58 290.613 102.58 292.238ZM118.563 293.824C118.563 295.033 117.51 295.943 115.82 295.943C114.104 295.943 112.895 294.929 112.83 293.629H114.364C114.416 294.214 114.975 294.695 115.794 294.695C116.652 294.695 117.107 294.331 117.107 293.837C117.107 292.433 112.947 293.239 112.947 290.613C112.947 289.469 114.013 288.546 115.703 288.546C117.328 288.546 118.394 289.417 118.472 290.847H116.99C116.938 290.223 116.457 289.794 115.651 289.794C114.858 289.794 114.442 290.119 114.442 290.6C114.442 292.043 118.485 291.237 118.563 293.824ZM123.18 289.794C122.179 289.794 121.373 290.47 121.217 291.601H125.182C125.156 290.496 124.285 289.794 123.18 289.794ZM126.534 293.694C126.131 294.942 125 295.943 123.245 295.943C121.191 295.943 119.67 294.487 119.67 292.238C119.67 289.989 121.126 288.546 123.245 288.546C125.286 288.546 126.729 289.963 126.729 292.069C126.729 292.316 126.716 292.55 126.677 292.797H121.204C121.308 293.98 122.153 294.695 123.245 294.695C124.155 294.695 124.662 294.253 124.935 293.694H126.534ZM131.203 289.794C130.202 289.794 129.396 290.47 129.24 291.601H133.205C133.179 290.496 132.308 289.794 131.203 289.794ZM134.557 293.694C134.154 294.942 133.023 295.943 131.268 295.943C129.214 295.943 127.693 294.487 127.693 292.238C127.693 289.989 129.149 288.546 131.268 288.546C133.309 288.546 134.752 289.963 134.752 292.069C134.752 292.316 134.739 292.55 134.7 292.797H129.227C129.331 293.98 130.176 294.695 131.268 294.695C132.178 294.695 132.685 294.253 132.958 293.694H134.557ZM142.409 294.123L144.502 288.663H146.036L141.642 299.193H140.108L141.564 295.709L138.743 288.663H140.394L142.409 294.123ZM153.979 292.238C153.979 294.487 152.315 295.943 150.261 295.943C148.22 295.943 146.673 294.487 146.673 292.238C146.673 289.989 148.285 288.546 150.326 288.546C152.367 288.546 153.979 289.989 153.979 292.238ZM148.181 292.238C148.181 293.863 149.143 294.656 150.261 294.656C151.366 294.656 152.458 293.863 152.458 292.238C152.458 290.613 151.405 289.833 150.3 289.833C149.182 289.833 148.181 290.613 148.181 292.238ZM161.931 288.663V295.826H160.449V294.968C159.981 295.579 159.175 295.93 158.33 295.93C156.653 295.93 155.379 294.877 155.379 292.875V288.663H156.848V292.654C156.848 293.967 157.563 294.643 158.642 294.643C159.734 294.643 160.449 293.967 160.449 292.654V288.663H161.931ZM166.77 292.212C166.77 290.002 168.265 288.546 170.15 288.546C171.359 288.546 172.191 289.118 172.633 289.703V288.663H174.128V295.826H172.633V294.76C172.178 295.371 171.32 295.943 170.124 295.943C168.265 295.943 166.77 294.422 166.77 292.212ZM172.633 292.238C172.633 290.704 171.58 289.833 170.462 289.833C169.357 289.833 168.291 290.665 168.291 292.212C168.291 293.759 169.357 294.656 170.462 294.656C171.58 294.656 172.633 293.785 172.633 292.238ZM175.58 292.212C175.58 290.002 177.075 288.546 178.96 288.546C180.13 288.546 181.001 289.092 181.443 289.703V288.663H182.938V295.943C182.938 297.893 181.677 299.362 179.441 299.362C177.53 299.362 176.113 298.413 175.931 296.827H177.4C177.621 297.568 178.414 298.075 179.441 298.075C180.585 298.075 181.443 297.373 181.443 295.943V294.747C180.988 295.358 180.13 295.943 178.96 295.943C177.075 295.943 175.58 294.422 175.58 292.212ZM181.443 292.238C181.443 290.704 180.39 289.833 179.272 289.833C178.167 289.833 177.101 290.665 177.101 292.212C177.101 293.759 178.167 294.656 179.272 294.656C180.39 294.656 181.443 293.785 181.443 292.238ZM184.391 292.212C184.391 290.002 185.886 288.546 187.771 288.546C188.98 288.546 189.812 289.118 190.254 289.703V288.663H191.749V295.826H190.254V294.76C189.799 295.371 188.941 295.943 187.745 295.943C185.886 295.943 184.391 294.422 184.391 292.212ZM190.254 292.238C190.254 290.704 189.201 289.833 188.083 289.833C186.978 289.833 185.912 290.665 185.912 292.212C185.912 293.759 186.978 294.656 188.083 294.656C189.201 294.656 190.254 293.785 190.254 292.238ZM193.695 295.826V288.663H195.177V295.826H193.695ZM194.449 287.714C193.916 287.714 193.5 287.298 193.5 286.765C193.5 286.232 193.916 285.816 194.449 285.816C194.969 285.816 195.385 286.232 195.385 286.765C195.385 287.298 194.969 287.714 194.449 287.714ZM202.206 295.826V291.822C202.206 290.509 201.491 289.833 200.412 289.833C199.32 289.833 198.605 290.509 198.605 291.822V295.826H197.123V288.663H198.605V289.482C199.086 288.897 199.879 288.546 200.737 288.546C202.414 288.546 203.675 289.599 203.675 291.601V295.826H202.206Z" fill="#939FA5"/>
<defs>
<linearGradient id="paint0_linear_68_1078" x1="6.5" y1="179.826" x2="209.873" y2="208.691" gradientUnits="userSpaceOnUse">
<stop stop-color="#9158C0"/>
<stop offset="1" stop-color="#8E88F5"/>
</linearGradient>
</defs>
</svg>
