<svg width="263" height="312" viewBox="0 0 263 312" fill="none" xmlns="http://www.w3.org/2000/svg">
<path d="M110.444 312C151.382 312 184.568 306.41 184.568 299.515C184.568 292.619 151.382 287.029 110.444 287.029C69.507 287.029 36.3208 292.619 36.3208 299.515C36.3208 306.41 69.507 312 110.444 312Z" fill="#EBEBEB"/>
<path d="M0 287.261L32.803 287.15L65.6059 287.108L131.218 287.029L196.83 287.108L229.633 287.145L262.436 287.261L229.633 287.372L196.83 287.414L131.218 287.493L65.6059 287.414L32.803 287.372L0 287.261Z" fill="#263238"/>
<path d="M262.633 0.974976H5.23254V163.862H262.633V0.974976Z" fill="#EBEBEB"/>
<path d="M256.37 7.22943H11.4789V157.607H256.37V7.22943Z" fill="white"/>
<path d="M73.6136 7.22943H70.7528V157.607H73.6136V7.22943Z" fill="#EBEBEB"/>
<path d="M135.355 7.22943H132.494V157.607H135.355V7.22943Z" fill="#EBEBEB"/>
<path d="M256.379 26.8454V23.9845L11.4871 23.9845V26.8454L256.379 26.8454Z" fill="#EBEBEB"/>
<path d="M197.104 7.22943H194.244V157.607H197.104V7.22943Z" fill="#EBEBEB"/>
<path d="M87.2047 145.074H100.32C100.495 143.989 100.591 142.893 100.607 141.795V128.532H84.0734V141.951C84.0734 143.287 87.2047 145.074 87.2047 145.074Z" fill="#455A64"/>
<path d="M84.0734 141.942C84.0734 143.246 86.9916 144.951 87.1719 145.057C86.6883 144.729 86.7703 142.139 86.7703 142.139C85.8783 141.998 84.9762 141.933 84.0734 141.942Z" fill="#37474F"/>
<path d="M86.5078 132.434C88.4505 132.278 90.4015 132.237 92.3442 132.229C94.287 132.22 96.2379 132.278 98.1806 132.434C96.2379 132.598 94.287 132.63 92.3442 132.639C90.4015 132.647 88.4505 132.598 86.5078 132.434Z" fill="white"/>
<path d="M86.5078 134.614C88.0407 134.458 89.5736 134.417 91.0983 134.409C92.6229 134.401 94.164 134.458 95.6887 134.614C94.1633 134.764 92.631 134.833 91.0983 134.819C89.5656 134.828 88.0335 134.76 86.5078 134.614Z" fill="white"/>
<path d="M86.5078 136.794C88.0407 136.639 89.5736 136.598 91.0983 136.59C92.6229 136.581 94.164 136.639 95.6887 136.794C94.1633 136.945 92.631 137.013 91.0983 136.999C89.5656 137.009 88.0335 136.94 86.5078 136.794Z" fill="white"/>
<path d="M222.909 33.2064H206.367V49.7484H222.909V33.2064Z" fill="#37474F"/>
<path d="M208.802 36.8705C210.745 36.7148 212.687 36.6738 214.638 36.6656C216.589 36.6574 218.524 36.7148 220.475 36.8705C218.524 37.0345 216.581 37.0673 214.638 37.0755C212.696 37.0837 210.745 36.9935 208.802 36.8705Z" fill="white"/>
<path d="M208.802 39.01C210.738 38.7368 212.703 38.7368 214.638 39.01C212.703 39.2833 210.738 39.2833 208.802 39.01Z" fill="white"/>
<path d="M208.802 41.1905C210.335 41.0347 211.86 40.9938 213.392 40.9856C214.925 40.9774 216.45 41.0347 217.983 41.1905C214.929 41.4637 211.856 41.4637 208.802 41.1905Z" fill="white"/>
<path d="M208.802 43.3709C210.745 43.2152 212.687 43.1742 214.638 43.166C216.589 43.1578 218.524 43.2152 220.475 43.3709C218.524 43.5349 216.581 43.5676 214.638 43.5758C212.696 43.584 210.745 43.5349 208.802 43.3709Z" fill="white"/>
<path d="M208.802 45.5513C210.294 45.3956 211.794 45.3546 213.286 45.3464C214.778 45.3382 216.278 45.3956 217.778 45.5513C214.779 45.8271 211.76 45.8271 208.761 45.5513H208.802Z" fill="white"/>
<path d="M116.357 78.5756L100.073 81.485L102.982 97.7691L119.266 94.8597L116.357 78.5756Z" fill="#455A64"/>
<path d="M103.107 84.6275C104.993 84.1274 106.902 83.7422 108.845 83.3979C110.788 83.0536 112.682 82.7585 114.583 82.5782C112.698 83.0782 110.788 83.4553 108.845 83.8077C106.902 84.1602 105.05 84.4143 103.107 84.6275Z" fill="white"/>
<path d="M103.484 86.7669C104.41 86.4582 105.358 86.2199 106.32 86.0538C107.281 85.8759 108.254 85.7717 109.23 85.7423C107.375 86.3494 105.444 86.6943 103.492 86.7669H103.484Z" fill="white"/>
<path d="M103.87 88.9146C105.353 88.4884 106.853 88.185 108.354 87.9063C109.854 87.6276 111.378 87.4145 112.911 87.2998C111.435 87.7133 109.938 88.0498 108.427 88.308C106.919 88.5882 105.398 88.7907 103.87 88.9146Z" fill="white"/>
<path d="M104.255 91.0623C106.14 90.5622 108.05 90.1852 109.993 89.8327C111.936 89.4802 113.837 89.1933 115.78 89.013C113.887 89.513 111.985 89.8901 110.042 90.2426C108.099 90.595 106.198 90.8819 104.255 91.0623Z" fill="white"/>
<path d="M104.64 93.2099C106.083 92.7919 107.55 92.4886 109.017 92.2181C110.485 91.9476 111.977 91.7344 113.477 91.6279C112.033 92.0331 110.569 92.3615 109.091 92.6115C107.616 92.8738 106.14 93.1034 104.64 93.2099Z" fill="white"/>
<path d="M57.5799 70.2823H41.038V86.8243H57.5799V70.2823Z" fill="#455A64"/>
<path d="M43.4725 73.9055C45.4235 73.7416 47.3662 73.7088 49.309 73.7006C51.2517 73.6924 53.2026 73.7006 55.1454 73.9055C53.2026 74.0613 51.2517 74.1023 49.309 74.1105C47.3662 74.1186 45.3989 74.0613 43.4725 73.9055Z" fill="white"/>
<path d="M43.4725 76.086C45.4084 75.8127 47.3731 75.8127 49.309 76.086C47.3731 76.3592 45.4084 76.3592 43.4725 76.086Z" fill="white"/>
<path d="M43.4725 78.2664C46.5267 77.9932 49.5992 77.9932 52.6534 78.2664C51.1287 78.4222 49.5959 78.4631 48.063 78.4713C46.5301 78.4795 45.0054 78.4222 43.4725 78.2664Z" fill="white"/>
<path d="M43.4725 80.4469C45.4235 80.283 47.3662 80.2502 49.309 80.242C51.2517 80.2338 53.2026 80.283 55.1454 80.4469C53.2026 80.6027 51.2517 80.6436 49.309 80.6518C47.3662 80.66 45.3989 80.6027 43.4725 80.4469Z" fill="white"/>
<path d="M43.4725 82.6274C46.4583 82.3541 49.4627 82.3541 52.4485 82.6274C50.9566 82.7831 49.4565 82.8241 47.9646 82.8323C46.4727 82.8405 44.9726 82.7749 43.4725 82.6274Z" fill="white"/>
<path d="M58.8259 125.228H42.2839V141.77H58.8259V125.228Z" fill="#37474F"/>
<path d="M44.7186 128.851C46.6614 128.687 48.6123 128.655 50.555 128.646C52.4978 128.638 54.4405 128.646 56.3915 128.851C54.4405 129.007 52.4978 129.048 50.555 129.056C48.6123 129.065 46.6614 129.007 44.7186 128.851Z" fill="white"/>
<path d="M44.7186 131.032C46.6545 130.759 48.6192 130.759 50.555 131.032C48.6192 131.305 46.6545 131.305 44.7186 131.032Z" fill="white"/>
<path d="M44.7186 133.212C47.7728 132.939 50.8453 132.939 53.8995 133.212C52.3666 133.368 50.8419 133.409 49.3091 133.417C47.7762 133.425 46.2187 133.368 44.7186 133.212Z" fill="white"/>
<path d="M44.7186 135.393C46.6614 135.229 48.6123 135.196 50.555 135.188C52.4978 135.18 54.4405 135.229 56.3915 135.393C54.4405 135.548 52.4978 135.589 50.555 135.598C48.6123 135.606 46.6614 135.548 44.7186 135.393Z" fill="white"/>
<path d="M44.7186 137.573C47.7179 137.297 50.7362 137.297 53.7356 137.573C52.2437 137.729 50.7436 137.77 49.2517 137.778C47.7598 137.786 46.2187 137.696 44.7186 137.573Z" fill="white"/>
<path d="M163.308 75.7417H146.766V92.2837H163.308V75.7417Z" fill="#37474F"/>
<path d="M149.2 79.3648C151.151 79.2009 153.094 79.1681 155.036 79.1599C156.979 79.1517 158.93 79.1599 160.873 79.3648C158.93 79.5206 156.987 79.5616 155.036 79.5698C153.086 79.578 151.143 79.496 149.2 79.3648Z" fill="white"/>
<path d="M149.2 81.5453C151.136 81.272 153.101 81.272 155.036 81.5453C154.071 81.6913 153.095 81.7598 152.118 81.7502C151.142 81.7551 150.166 81.6866 149.2 81.5453Z" fill="white"/>
<path d="M149.2 83.7258C152.254 83.4525 155.327 83.4525 158.381 83.7258C156.855 83.872 155.323 83.9404 153.791 83.9307C152.266 83.9225 150.733 83.8815 149.2 83.7258Z" fill="white"/>
<path d="M149.2 85.9062C151.151 85.7505 153.094 85.7095 155.036 85.7013C156.979 85.6931 158.93 85.7423 160.873 85.9062C158.93 86.0702 156.987 86.103 155.036 86.1112C153.086 86.1194 151.143 86.0538 149.2 85.9062Z" fill="white"/>
<path d="M149.2 88.0867C150.7 87.931 152.192 87.89 153.692 87.8818C155.192 87.8725 156.691 87.9409 158.184 88.0867C156.691 88.2325 155.192 88.3009 153.692 88.2916C152.192 88.2834 150.7 88.2425 149.2 88.0867Z" fill="white"/>
<path d="M177.114 45.5943L160.754 43.1464L158.306 59.5062L174.666 61.9541L177.114 45.5943Z" fill="#FFC727"/>
<path d="M162.619 47.1006C164.57 47.2318 166.496 47.4859 168.423 47.7646C170.349 48.0433 172.267 48.3794 174.161 48.8303C172.218 48.6991 170.283 48.445 168.365 48.1663C166.447 47.8876 164.529 47.5269 162.619 47.1006Z" fill="white"/>
<path d="M162.307 49.2565C163.284 49.263 164.26 49.3397 165.226 49.486C166.191 49.6268 167.145 49.8406 168.078 50.1254C167.101 50.1189 166.126 50.0422 165.16 49.8959C164.194 49.756 163.241 49.5422 162.307 49.2565Z" fill="white"/>
<path d="M161.988 51.4124C163.521 51.4861 165.037 51.6747 166.554 51.8878C168.07 52.1009 169.578 52.3878 171.062 52.7731C169.533 52.693 168.009 52.5343 166.496 52.2977C164.98 52.0599 163.439 51.7976 161.988 51.4124Z" fill="white"/>
<path d="M161.66 53.5682C163.611 53.6994 165.537 53.9535 167.464 54.2322C169.39 54.5109 171.3 54.8552 173.202 55.2978C171.259 55.1667 169.324 54.9208 167.398 54.6339C165.472 54.347 163.562 54.0191 161.66 53.5682Z" fill="white"/>
<path d="M161.34 55.7241C164.334 55.893 167.306 56.3375 170.218 57.0521C167.225 56.8725 164.254 56.4281 161.34 55.7241Z" fill="white"/>
<path d="M127.117 93.505H110.575V110.047H127.117V93.505Z" fill="#FFC727"/>
<path d="M113.009 97.1282C114.96 96.9724 116.903 96.9314 118.846 96.9232C120.789 96.915 122.739 96.9724 124.682 97.1282C122.739 97.2921 120.797 97.3249 118.846 97.3331C116.895 97.3413 114.96 97.2921 113.009 97.1282Z" fill="white"/>
<path d="M113.009 99.3086C114.945 99.0354 116.91 99.0354 118.846 99.3086C116.91 99.5819 114.945 99.5819 113.009 99.3086Z" fill="white"/>
<path d="M113.009 101.489C114.542 101.333 116.075 101.292 117.6 101.284C119.125 101.276 120.666 101.333 122.198 101.489C120.67 101.639 119.135 101.708 117.6 101.694C116.067 101.703 114.535 101.635 113.009 101.489Z" fill="white"/>
<path d="M113.009 103.67C114.96 103.514 116.903 103.473 118.846 103.465C120.789 103.456 122.739 103.514 124.682 103.67C122.739 103.834 120.797 103.875 118.846 103.875C116.895 103.875 114.96 103.834 113.009 103.67Z" fill="white"/>
<path d="M113.009 105.85C114.509 105.694 116.001 105.661 117.501 105.653C119.001 105.641 120.501 105.707 121.994 105.85C120.501 106 119.001 106.068 117.501 106.055C116.002 106.064 114.502 105.996 113.009 105.85Z" fill="white"/>
<path d="M53.6043 46.9613H37.0624V63.5033H53.6043V46.9613Z" fill="#FFC727"/>
<path d="M39.4968 50.5845C41.4396 50.4287 43.3905 50.3878 45.3332 50.3796C47.276 50.3714 49.2187 50.4287 51.1696 50.5845C49.2187 50.7484 47.276 50.7812 45.3332 50.7894C43.3905 50.7976 41.4396 50.7484 39.4968 50.5845Z" fill="white"/>
<path d="M39.4968 52.7649C41.4327 52.4917 43.3974 52.4917 45.3332 52.7649C43.3974 53.0382 41.4327 53.0382 39.4968 52.7649Z" fill="white"/>
<path d="M39.4968 54.9454C41.0297 54.7896 42.5544 54.7486 44.0873 54.7404C45.6201 54.7322 47.1448 54.7896 48.6777 54.9454C45.6235 55.2186 42.551 55.2186 39.4968 54.9454Z" fill="white"/>
<path d="M39.4968 57.1258C41.4396 56.9701 43.3905 56.9291 45.3332 56.9209C47.276 56.9127 49.2187 56.9701 51.1696 57.1258C49.2187 57.2898 47.276 57.3226 45.3332 57.3308C43.3905 57.339 41.4396 57.2898 39.4968 57.1258Z" fill="white"/>
<path d="M39.4968 59.3063C40.9887 59.1505 42.4888 59.1095 43.9889 59.1013C45.489 59.0931 46.9809 59.1505 48.4728 59.3063C45.487 59.5795 42.4826 59.5795 39.4968 59.3063Z" fill="white"/>
<path d="M191.801 106.276H175.259V122.818H191.801V106.276Z" fill="#FFC727"/>
<path d="M177.694 109.899C179.636 109.744 181.579 109.703 183.53 109.694C185.481 109.686 187.415 109.694 189.358 109.899C187.415 110.063 185.473 110.096 183.53 110.104C181.587 110.113 179.636 110.055 177.694 109.899Z" fill="white"/>
<path d="M177.694 112.08C178.66 111.938 179.635 111.869 180.612 111.875C181.588 111.866 182.564 111.934 183.53 112.08C182.578 112.223 181.616 112.292 180.653 112.285C179.663 112.292 178.673 112.224 177.694 112.08Z" fill="white"/>
<path d="M177.694 114.26C179.218 114.105 180.751 114.064 182.284 114.055C183.817 114.046 185.349 114.115 186.874 114.26C183.82 114.534 180.748 114.534 177.694 114.26Z" fill="white"/>
<path d="M177.694 116.441C179.636 116.285 181.579 116.244 183.53 116.236C185.481 116.228 187.415 116.285 189.358 116.441C187.415 116.605 185.473 116.638 183.53 116.646C181.587 116.654 179.636 116.605 177.694 116.441Z" fill="white"/>
<path d="M177.694 118.621C179.185 118.466 180.686 118.425 182.177 118.416C183.669 118.408 185.169 118.466 186.67 118.621C183.684 118.895 180.679 118.895 177.694 118.621Z" fill="white"/>
<path d="M243.288 71.7743H226.746C226.264 70.7443 225.986 69.6309 225.926 68.4954V55.2323H242.468V68.6511C242.558 69.7319 242.835 70.7888 243.288 71.7743Z" fill="#FFC727"/>
<path d="M228.771 59.1424C230.713 58.9784 232.656 58.9456 234.607 58.9374C236.558 58.9292 238.492 58.9374 240.435 59.1424C238.492 59.2981 236.55 59.3391 234.607 59.3473C232.664 59.3555 230.713 59.2981 228.771 59.1424Z" fill="white"/>
<path d="M228.771 61.3228C230.517 61.1589 232.271 61.1261 234.017 61.1179C235.763 61.1097 237.517 61.1179 239.263 61.3228C237.517 61.4868 235.763 61.5196 234.017 61.5278C232.271 61.536 230.517 61.4622 228.771 61.3228Z" fill="white"/>
<path d="M228.771 63.5033C230.295 63.3475 231.828 63.3065 233.361 63.2983C234.894 63.2891 236.426 63.3575 237.951 63.5033C236.426 63.6491 234.894 63.7175 233.361 63.7082C231.828 63.7 230.295 63.659 228.771 63.5033Z" fill="white"/>
<path d="M228.771 65.6837C230.713 65.528 232.656 65.487 234.607 65.4788C236.558 65.4706 238.492 65.4788 240.435 65.6837C238.492 65.8476 236.55 65.8804 234.607 65.8886C232.664 65.8968 230.713 65.8395 228.771 65.6837Z" fill="white"/>
<path d="M26.4305 99.5874H42.9397C43.4218 98.5575 43.7001 97.4441 43.7594 96.3085V83.0454H27.2503V96.4724C27.1597 97.5504 26.8823 98.6044 26.4305 99.5874Z" fill="#FFC727"/>
<path d="M29.275 86.9555C31.226 86.7997 33.1687 86.7588 35.1114 86.7506C37.0542 86.7424 39.0051 86.7997 40.9478 86.9555C39.0051 87.1194 37.0542 87.1522 35.1114 87.1604C33.1687 87.1686 31.226 87.1194 29.275 86.9555Z" fill="white"/>
<path d="M29.275 89.1359C31.0292 88.9802 32.7752 88.9392 34.5294 88.931C36.2836 88.9228 38.0214 88.9802 39.7756 89.1359C38.0214 89.2999 36.2754 89.3327 34.5294 89.3409C32.7834 89.3491 31.0292 89.3327 29.275 89.1359Z" fill="white"/>
<path d="M29.275 91.3164C30.8079 91.1606 32.3408 91.1196 33.8655 91.1114C35.3901 91.1033 36.9312 91.1606 38.4559 91.3164C35.4017 91.5896 32.3292 91.5896 29.275 91.3164Z" fill="white"/>
<path d="M29.275 93.4968C31.226 93.3411 33.1687 93.3001 35.1114 93.2919C37.0542 93.2837 39.0051 93.3411 40.9478 93.4968C39.0051 93.6608 37.0542 93.7018 35.1114 93.7018C33.1687 93.7018 31.226 93.6608 29.275 93.4968Z" fill="white"/>
<path d="M103.279 140.5H86.7374C86.2554 139.47 85.977 138.356 85.9177 137.221V123.958H102.46V137.385C102.55 138.463 102.828 139.517 103.279 140.5Z" fill="#FFC727"/>
<path d="M88.7622 127.859C90.7131 127.704 92.6559 127.663 94.5986 127.655C96.5414 127.646 98.4923 127.704 100.435 127.859C98.4923 128.023 96.5414 128.056 94.5986 128.064C92.6559 128.073 90.7131 128.032 88.7622 127.859Z" fill="white"/>
<path d="M88.7622 130.048C90.5164 129.892 92.2624 129.851 94.0166 129.843C95.7708 129.835 97.5086 129.892 99.2628 130.048C97.5086 130.212 95.7626 130.245 94.0166 130.253C92.2706 130.261 90.4836 130.212 88.7622 130.048Z" fill="white"/>
<path d="M88.7622 132.229C90.2951 132.073 91.828 132.032 93.3526 132.024C94.8773 132.016 96.4184 132.073 97.9431 132.229C96.4177 132.379 94.8854 132.447 93.3526 132.434C91.82 132.443 90.2879 132.374 88.7622 132.229Z" fill="white"/>
<path d="M88.7622 134.417C90.7131 134.262 92.6559 134.221 94.5986 134.212C96.5414 134.204 98.4923 134.262 100.435 134.417C98.4923 134.581 96.5414 134.622 94.5986 134.622C92.6559 134.622 90.7131 134.573 88.7622 134.417Z" fill="white"/>
<path d="M164.127 49.7484H147.585C147.103 48.7184 146.825 47.605 146.766 46.4695V33.2064H163.308V46.6252C163.397 47.706 163.675 48.7629 164.127 49.7484Z" fill="#455A64"/>
<path d="M149.61 37.1165C151.561 36.9607 153.504 36.9197 155.447 36.9115C157.389 36.9033 159.34 36.9115 161.283 37.1165C159.34 37.2804 157.397 37.3132 155.447 37.3214C153.496 37.3296 151.561 37.2722 149.61 37.1165Z" fill="white"/>
<path d="M149.61 39.3297C151.364 39.174 153.11 39.133 154.865 39.1248C156.619 39.1166 158.357 39.1658 160.111 39.3297C158.357 39.4937 156.611 39.5265 154.865 39.5347C153.119 39.5428 151.364 39.4609 149.61 39.3297Z" fill="white"/>
<path d="M149.61 41.4773C151.143 41.3216 152.676 41.2806 154.201 41.2724C155.733 41.2628 157.265 41.3312 158.791 41.4773C155.737 41.7506 152.664 41.7506 149.61 41.4773Z" fill="white"/>
<path d="M149.61 43.6578C151.561 43.5021 153.504 43.4611 155.447 43.4529C157.389 43.4447 159.34 43.5021 161.283 43.6578C159.34 43.8218 157.397 43.8545 155.447 43.8627C153.496 43.8709 151.561 43.8218 149.61 43.6578Z" fill="white"/>
<path d="M107.444 57.7324H90.9098C90.428 56.7025 90.1496 55.5891 90.0901 54.4535V41.1905H106.624V54.6093C106.713 55.6901 106.991 56.7469 107.444 57.7324Z" fill="#37474F"/>
<path d="M92.9427 45.0677C94.8855 44.912 96.8282 44.871 98.7792 44.8628C100.73 44.8546 102.665 44.8628 104.607 45.0677C102.665 45.2317 100.722 45.2645 98.7792 45.2727C96.8364 45.2809 94.8773 45.2645 92.9427 45.0677Z" fill="white"/>
<path d="M92.9427 47.281C94.6888 47.1252 96.443 47.0843 98.189 47.0761C99.935 47.0679 101.689 47.1252 103.435 47.281C101.689 47.4449 99.935 47.4777 98.189 47.4859C96.443 47.4941 94.6806 47.4449 92.9427 47.281Z" fill="white"/>
<path d="M92.9427 49.4615C94.4674 49.3057 96.0003 49.2647 97.5332 49.2565C99.0661 49.2483 100.591 49.3057 102.124 49.4615C99.0694 49.7347 95.9969 49.7347 92.9427 49.4615Z" fill="white"/>
<path d="M92.9427 51.6255C94.8855 51.4698 96.8282 51.4288 98.7792 51.4206C100.73 51.4124 102.665 51.4698 104.607 51.6255C102.665 51.7895 100.722 51.8223 98.7792 51.8305C96.8364 51.8386 94.8773 51.8059 92.9427 51.6255Z" fill="white"/>
<path d="M187.547 136.794H171.005C170.523 135.765 170.244 134.651 170.185 133.516V120.261H186.727V133.68C186.818 134.758 187.095 135.812 187.547 136.794Z" fill="#37474F"/>
<path d="M173.029 124.163C174.972 124.007 176.923 123.966 178.866 123.958C180.809 123.949 182.751 124.007 184.702 124.163C182.751 124.327 180.809 124.368 178.866 124.368C176.923 124.368 174.972 124.327 173.029 124.163Z" fill="white"/>
<path d="M173.029 126.351C174.775 126.187 176.53 126.155 178.276 126.146C180.022 126.138 181.776 126.187 183.53 126.351C181.776 126.507 180.03 126.548 178.276 126.548C176.521 126.548 174.775 126.507 173.029 126.351Z" fill="white"/>
<path d="M173.029 128.532C174.555 128.386 176.087 128.317 177.62 128.327C179.153 128.313 180.685 128.382 182.21 128.532C180.677 128.687 179.153 128.728 177.62 128.737C176.087 128.745 174.562 128.679 173.029 128.532Z" fill="white"/>
<path d="M173.029 130.712C174.972 130.548 176.923 130.515 178.866 130.507C180.809 130.499 182.751 130.548 184.702 130.712C182.751 130.868 180.809 130.909 178.866 130.917C176.923 130.925 174.972 130.868 173.029 130.712Z" fill="white"/>
<path d="M219.999 96.2347H206.884C206.714 95.1497 206.621 94.054 206.605 92.9558V79.7009H223.147V93.1198C223.106 94.4559 219.999 96.2347 219.999 96.2347Z" fill="#455A64"/>
<path d="M223.098 93.1116C223.098 94.4149 220.18 96.12 219.999 96.2265C220.483 95.8986 220.401 93.3083 220.401 93.3083C221.293 93.1677 222.195 93.1019 223.098 93.1116Z" fill="#37474F"/>
<path d="M208.999 83.5946C210.942 83.4389 212.884 83.3979 214.835 83.3897C216.786 83.3815 218.721 83.4389 220.663 83.5946C218.721 83.7586 216.778 83.7914 214.835 83.7996C212.892 83.8077 210.983 83.7668 208.999 83.5946Z" fill="white"/>
<path d="M208.999 85.7833C210.523 85.6275 212.056 85.5865 213.589 85.5783C215.122 85.5701 216.647 85.6275 218.18 85.7833C215.125 86.0565 212.053 86.0565 208.999 85.7833Z" fill="white"/>
<path d="M208.999 87.9637C210.523 87.808 212.056 87.767 213.589 87.7588C215.122 87.7506 216.647 87.808 218.18 87.9637C216.654 88.1136 215.122 88.182 213.589 88.1686C212.057 88.1783 210.524 88.1099 208.999 87.9637Z" fill="white"/>
<path d="M158.143 107.858H171.259C171.429 106.773 171.522 105.678 171.538 104.579V91.3164H155.037V104.743C155.037 106.08 158.143 107.858 158.143 107.858Z" fill="#455A64"/>
<path d="M155.037 104.735C155.037 106.039 157.955 107.744 158.135 107.85C157.652 107.522 157.734 104.932 157.734 104.932C156.842 104.791 155.939 104.725 155.037 104.735Z" fill="#37474F"/>
<path d="M157.471 95.2265C159.422 95.0707 161.365 95.0297 163.308 95.0215C165.25 95.0133 167.201 95.0707 169.144 95.2265C167.201 95.3904 165.25 95.4232 163.308 95.4314C161.365 95.4396 159.422 95.3904 157.471 95.2265Z" fill="white"/>
<path d="M157.471 97.4069C159.004 97.2512 160.537 97.2102 162.062 97.202C163.586 97.1938 165.127 97.2512 166.652 97.4069C163.598 97.6801 160.525 97.6801 157.471 97.4069Z" fill="white"/>
<path d="M157.471 99.5873C159.004 99.4316 160.537 99.3906 162.062 99.3824C163.586 99.3742 165.127 99.4316 166.652 99.5873C163.598 99.8606 160.525 99.8606 157.471 99.5873Z" fill="white"/>
<path d="M38.0214 53.1666H24.9059C24.7313 52.082 24.6354 50.9862 24.619 49.8877V36.6246H41.161V50.0435C41.1118 51.3878 38.0214 53.1666 38.0214 53.1666Z" fill="#455A64"/>
<path d="M41.1118 50.0434C41.1118 51.3468 38.1936 53.0518 38.0133 53.1584C38.4969 52.8305 38.415 50.2402 38.415 50.2402C39.3069 50.0995 40.209 50.0337 41.1118 50.0434Z" fill="#37474F"/>
<path d="M27.0126 40.5347C28.9553 40.379 30.8981 40.338 32.8408 40.3298C34.7835 40.3216 36.7345 40.3298 38.6772 40.5347C36.7345 40.6986 34.7917 40.7314 32.8408 40.7396C30.8899 40.7478 28.9553 40.6905 27.0126 40.5347Z" fill="white"/>
<path d="M27.0126 42.7152C28.5373 42.5594 30.0701 42.5184 31.603 42.5102C33.1356 42.501 34.6677 42.5694 36.1934 42.7152C33.1393 42.9884 30.0668 42.9884 27.0126 42.7152Z" fill="white"/>
<path d="M27.0126 44.8956C28.5373 44.7398 30.0701 44.6988 31.603 44.6906C33.1356 44.6814 34.6677 44.7498 36.1934 44.8956C33.1393 45.1688 30.0668 45.1688 27.0126 44.8956Z" fill="white"/>
<path d="M116.862 67.7822H103.747C103.572 66.6976 103.476 65.6018 103.46 64.5033V51.2402H119.993V64.659C119.993 66.0034 116.862 67.7822 116.862 67.7822Z" fill="#FFC727"/>
<path opacity="0.2" d="M119.994 64.659C119.994 65.9624 117.075 67.6674 116.895 67.774C117.379 67.4461 117.297 64.8558 117.297 64.8558C118.189 64.7151 119.091 64.6493 119.994 64.659Z" fill="black"/>
<path d="M105.862 55.1503C107.813 54.9946 109.755 54.9536 111.698 54.9454C113.641 54.9372 115.592 54.9946 117.534 55.1503C115.592 55.3143 113.641 55.3471 111.698 55.3553C109.755 55.3635 107.813 55.3143 105.862 55.1503Z" fill="white"/>
<path d="M105.862 57.3636C107.394 57.2078 108.927 57.1668 110.452 57.1586C111.977 57.1504 113.518 57.2078 115.042 57.3636C111.988 57.6368 108.916 57.6368 105.862 57.3636Z" fill="white"/>
<path d="M105.862 59.5112C107.394 59.3555 108.927 59.3145 110.452 59.3063C111.977 59.2981 113.518 59.3555 115.042 59.5112C111.988 59.7845 108.916 59.7845 105.862 59.5112Z" fill="white"/>
<path d="M34.5457 15.0086H33.6276V18.0743C33.6287 18.1155 33.6214 18.1565 33.6062 18.1948C33.5909 18.2332 33.568 18.2679 33.5389 18.2971C33.5097 18.3262 33.4749 18.3492 33.4366 18.3644C33.3983 18.3797 33.3573 18.3869 33.3161 18.3858C33.2327 18.3858 33.1526 18.3533 33.0929 18.2951C33.0332 18.2369 32.9986 18.1577 32.9964 18.0743V15.0086H32.0947C32.0092 15.0064 31.9279 14.9709 31.8681 14.9097C31.8084 14.8484 31.775 14.7662 31.775 14.6807C31.775 14.6391 31.7833 14.5979 31.7995 14.5596C31.8157 14.5212 31.8393 14.4865 31.8691 14.4575C31.8989 14.4284 31.9343 14.4057 31.973 14.3905C32.0117 14.3753 32.0531 14.3681 32.0947 14.3692H34.5539C34.6365 14.3692 34.7157 14.402 34.7741 14.4604C34.8326 14.5188 34.8654 14.5981 34.8654 14.6807C34.8654 14.7662 34.832 14.8484 34.7723 14.9097C34.7125 14.9709 34.6312 15.0064 34.5457 15.0086Z" fill="#DBDBDB"/>
<path d="M38.6607 14.8692C39.0289 15.2626 39.2338 15.7813 39.2338 16.3201C39.2338 16.8589 39.0289 17.3776 38.6607 17.771C38.4861 17.9631 38.2736 18.117 38.0366 18.2228C37.7996 18.3286 37.5431 18.3841 37.2836 18.3858C37.0201 18.386 36.7594 18.3315 36.5181 18.2257C36.2768 18.1198 36.0602 17.965 35.8818 17.771C35.5136 17.3776 35.3087 16.8589 35.3087 16.3201C35.3087 15.7813 35.5136 15.2626 35.8818 14.8692C36.0602 14.6752 36.2768 14.5204 36.5181 14.4146C36.7594 14.3087 37.0201 14.2542 37.2836 14.2544C37.5431 14.2561 37.7996 14.3116 38.0366 14.4174C38.2736 14.5232 38.4861 14.6771 38.6607 14.8692ZM38.5869 16.3201C38.5874 15.9465 38.4469 15.5864 38.1935 15.3118C38.0769 15.1868 37.9361 15.0867 37.7797 15.0176C37.6233 14.9486 37.4545 14.912 37.2836 14.9102C37.1097 14.9088 36.9374 14.9438 36.7779 15.013C36.6184 15.0822 36.4751 15.184 36.3573 15.3118C36.101 15.5846 35.96 15.9458 35.9638 16.3201C35.9578 16.6923 36.0992 17.0518 36.3573 17.3202C36.4747 17.4491 36.6177 17.5522 36.7772 17.6228C36.9367 17.6933 37.1092 17.7299 37.2836 17.73C37.455 17.7267 37.6241 17.6886 37.7804 17.6182C37.9368 17.5477 38.0773 17.4464 38.1935 17.3202C38.4478 17.0495 38.5886 16.6915 38.5869 16.3201Z" fill="#DBDBDB"/>
<path d="M42.12 18.0743V14.6807C42.12 14.6391 42.1283 14.5979 42.1445 14.5596C42.1606 14.5212 42.1843 14.4865 42.2141 14.4575C42.2439 14.4284 42.2792 14.4057 42.318 14.3905C42.3567 14.3753 42.3981 14.3681 42.4397 14.3692H43.1119C43.6445 14.3692 44.1553 14.5808 44.532 14.9574C44.9086 15.334 45.1202 15.8449 45.1202 16.3775C45.1202 16.9101 44.9086 17.421 44.532 17.7976C44.1553 18.1742 43.6445 18.3858 43.1119 18.3858H42.4397C42.3981 18.3869 42.3567 18.3797 42.318 18.3645C42.2792 18.3493 42.2439 18.3266 42.2141 18.2975C42.1843 18.2685 42.1606 18.2338 42.1445 18.1954C42.1283 18.1571 42.12 18.1159 42.12 18.0743ZM42.7594 17.7464H43.1119C43.4749 17.7464 43.8231 17.6022 44.0798 17.3455C44.3366 17.0888 44.4808 16.7406 44.4808 16.3775C44.4808 16.0144 44.3366 15.6662 44.0798 15.4095C43.8231 15.1528 43.4749 15.0086 43.1119 15.0086H42.7594V17.7464Z" fill="#DBDBDB"/>
<path d="M49.2926 14.8692C49.6664 15.2598 49.875 15.7795 49.875 16.3201C49.875 16.8607 49.6664 17.3804 49.2926 17.771C49.1203 17.9637 48.9094 18.118 48.6735 18.2239C48.4377 18.3298 48.1822 18.385 47.9237 18.3858C47.6592 18.3852 47.3975 18.3303 47.155 18.2246C46.9125 18.1188 46.6943 17.9644 46.5138 17.771C46.1509 17.3749 45.9496 16.8573 45.9496 16.3201C45.9496 15.7829 46.1509 15.2653 46.5138 14.8692C46.6943 14.6758 46.9125 14.5214 47.155 14.4157C47.3975 14.3099 47.6592 14.255 47.9237 14.2544C48.1822 14.2552 48.4377 14.3104 48.6735 14.4163C48.9094 14.5222 49.1203 14.6765 49.2926 14.8692ZM49.2189 16.3201C49.2184 15.9481 49.0813 15.5893 48.8336 15.3118C48.717 15.1868 48.5763 15.0867 48.4199 15.0176C48.2635 14.9486 48.0947 14.912 47.9237 14.9102C47.7498 14.9088 47.5776 14.9438 47.4181 15.013C47.2585 15.0822 47.1152 15.184 46.9974 15.3118C46.7411 15.5846 46.6002 15.9458 46.604 16.3201C46.5979 16.6923 46.7394 17.0518 46.9974 17.3202C47.1148 17.4491 47.2579 17.5522 47.4174 17.6228C47.5768 17.6933 47.7493 17.7299 47.9237 17.73C48.0952 17.7267 48.2642 17.6886 48.4206 17.6182C48.577 17.5477 48.7175 17.4464 48.8336 17.3202C49.0821 17.0465 49.2195 16.6898 49.2189 16.3201Z" fill="#DBDBDB"/>
<path d="M84.0487 14.6807C84.0487 14.5981 84.0815 14.5189 84.14 14.4604C84.1984 14.402 84.2776 14.3692 84.3602 14.3692C84.4444 14.3691 84.5254 14.4014 84.5864 14.4594C84.6475 14.5174 84.6839 14.5966 84.6881 14.6807V18.0743C84.6839 18.1584 84.6475 18.2377 84.5864 18.2957C84.5254 18.3536 84.4444 18.3859 84.3602 18.3858C84.2776 18.3858 84.1984 18.353 84.14 18.2946C84.0815 18.2362 84.0487 18.1569 84.0487 18.0743V14.6807Z" fill="#DBDBDB"/>
<path d="M86.385 18.0743C86.3829 18.1563 86.3494 18.2343 86.2914 18.2923C86.2334 18.3503 86.1554 18.3838 86.0735 18.3858C86.0319 18.3869 85.9905 18.3797 85.9517 18.3645C85.913 18.3494 85.8777 18.3266 85.8479 18.2976C85.8181 18.2685 85.7944 18.2338 85.7782 18.1955C85.7621 18.1571 85.7538 18.1159 85.7538 18.0743V14.7381C85.7509 14.6867 85.7615 14.6355 85.7845 14.5895C85.8075 14.5435 85.8421 14.5043 85.8849 14.4758C85.9513 14.4271 86.0343 14.4066 86.1157 14.4189C86.1971 14.4312 86.2703 14.4752 86.3194 14.5414L88.1719 17.1071V14.7381C88.1719 14.6555 88.2048 14.5762 88.2632 14.5178C88.3216 14.4594 88.4008 14.4266 88.4834 14.4266C88.566 14.4266 88.6453 14.4594 88.7037 14.5178C88.7621 14.5762 88.7949 14.6555 88.7949 14.7381V18.0743C88.7949 18.157 88.7621 18.2362 88.7037 18.2946C88.6453 18.353 88.566 18.3858 88.4834 18.3858C88.4377 18.3859 88.3926 18.3755 88.3514 18.3557C88.3103 18.3358 88.2741 18.3069 88.2457 18.2711L86.385 15.689V18.0743Z" fill="#DBDBDB"/>
<path d="M93.246 16.8284H92.541V18.0743C92.541 18.1591 92.5073 18.2404 92.4474 18.3004C92.3874 18.3603 92.3061 18.394 92.2213 18.394C92.1365 18.394 92.0552 18.3603 91.9952 18.3004C91.9353 18.2404 91.9016 18.1591 91.9016 18.0743V14.6807C91.9037 14.5973 91.9384 14.5181 91.9981 14.4599C92.0578 14.4017 92.1379 14.3692 92.2213 14.3692H93.246C93.5721 14.3692 93.8848 14.4987 94.1154 14.7293C94.346 14.9599 94.4755 15.2727 94.4755 15.5988C94.4755 15.9249 94.346 16.2376 94.1154 16.4682C93.8848 16.6988 93.5721 16.8284 93.246 16.8284ZM92.541 16.189H93.246C93.4025 16.189 93.5526 16.1268 93.6633 16.0161C93.774 15.9054 93.8362 15.7553 93.8362 15.5988C93.8362 15.4423 93.774 15.2921 93.6633 15.1814C93.5526 15.0708 93.4025 15.0086 93.246 15.0086H92.541V16.189Z" fill="#DBDBDB"/>
<path d="M97.9102 17.9104C97.9361 17.9908 97.929 18.0782 97.8906 18.1535C97.8522 18.2288 97.7856 18.2858 97.7053 18.3121H97.5823C97.5034 18.315 97.4256 18.292 97.361 18.2465C97.2824 18.1981 97.2175 18.1303 97.1725 18.0497C97.0784 17.8329 97.0363 17.5971 97.0495 17.3612C97.0537 17.2744 97.0308 17.1884 96.9839 17.1153C96.9395 17.0462 96.8808 16.9875 96.8118 16.9431C96.7123 16.8839 96.6046 16.8397 96.4921 16.812H95.8117V18.0579C95.8117 18.1427 95.7781 18.2241 95.7181 18.284C95.6582 18.344 95.5768 18.3776 95.4921 18.3776C95.4073 18.3776 95.326 18.344 95.266 18.284C95.206 18.2241 95.1724 18.1427 95.1724 18.0579V14.6807C95.1723 14.6391 95.1807 14.5979 95.1968 14.5596C95.213 14.5212 95.2367 14.4865 95.2665 14.4575C95.2963 14.4285 95.3316 14.4057 95.3703 14.3905C95.4091 14.3754 95.4505 14.3681 95.4921 14.3692H96.5167C96.7717 14.3628 97.0224 14.4359 97.2341 14.5784C97.4457 14.7208 97.6078 14.9256 97.6978 15.1643C97.7879 15.403 97.8015 15.6638 97.7367 15.9105C97.672 16.1573 97.5321 16.3778 97.3364 16.5415C97.4122 16.6024 97.4785 16.6742 97.5332 16.7546C97.6575 16.9384 97.7232 17.1556 97.7217 17.3776C97.7129 17.4894 97.7129 17.6018 97.7217 17.7137C97.7649 17.7319 97.8038 17.7588 97.8363 17.7926C97.8687 17.8264 97.8938 17.8665 97.9102 17.9104ZM97.0905 15.5988C97.0884 15.4415 97.0244 15.2914 96.9124 15.1809C96.8004 15.0705 96.6494 15.0086 96.4921 15.0086H95.7872V16.189H96.4921C96.5714 16.1912 96.6503 16.1776 96.7242 16.149C96.7982 16.1204 96.8658 16.0774 96.923 16.0225C96.9802 15.9676 97.0259 15.9018 97.0575 15.8291C97.089 15.7564 97.1058 15.6781 97.1069 15.5988H97.0905Z" fill="#DBDBDB"/>
<path d="M101.902 14.8692C102.276 15.2598 102.485 15.7795 102.485 16.3201C102.485 16.8607 102.276 17.3804 101.902 17.771C101.73 17.9637 101.519 18.118 101.283 18.2239C101.047 18.3298 100.792 18.385 100.533 18.3858C100.269 18.3852 100.007 18.3303 99.7646 18.2246C99.5221 18.1188 99.3039 17.9644 99.1234 17.771C98.7605 17.3749 98.5592 16.8573 98.5592 16.3201C98.5592 15.7829 98.7605 15.2653 99.1234 14.8692C99.3039 14.6758 99.5221 14.5214 99.7646 14.4157C100.007 14.3099 100.269 14.255 100.533 14.2544C100.792 14.2552 101.047 14.3104 101.283 14.4163C101.519 14.5222 101.73 14.6765 101.902 14.8692ZM101.828 16.3201C101.828 15.9481 101.691 15.5893 101.443 15.3118C101.327 15.1868 101.186 15.0867 101.029 15.0176C100.873 14.9486 100.704 14.912 100.533 14.9102C100.359 14.9088 100.187 14.9438 100.028 15.013C99.8681 15.0822 99.7249 15.184 99.607 15.3118C99.3508 15.5846 99.2098 15.9458 99.2136 16.3201C99.2076 16.6923 99.349 17.0518 99.607 17.3202C99.7245 17.4491 99.8675 17.5522 100.027 17.6228C100.186 17.6933 100.359 17.7299 100.533 17.73C100.705 17.7267 100.874 17.6886 101.03 17.6182C101.187 17.5477 101.327 17.4464 101.443 17.3202C101.692 17.0465 101.829 16.6898 101.828 16.3201Z" fill="#DBDBDB"/>
<path d="M103.435 16.3283C103.448 15.9353 103.571 15.5537 103.788 15.2261C104.006 14.8985 104.31 14.6377 104.667 14.4728C105.024 14.3079 105.42 14.2454 105.81 14.2922C106.2 14.3391 106.57 14.4934 106.878 14.7381C106.948 14.7903 106.994 14.8679 107.006 14.954C107.018 15.0401 106.996 15.1276 106.944 15.1971C106.889 15.266 106.809 15.3106 106.722 15.3213C106.634 15.332 106.546 15.308 106.476 15.2545C106.22 15.0508 105.902 14.9409 105.575 14.943C105.383 14.9389 105.193 14.9738 105.015 15.0457C104.838 15.1176 104.677 15.2249 104.542 15.3611C104.405 15.4877 104.296 15.6411 104.222 15.8118C104.147 15.9825 104.109 16.1667 104.109 16.3529C104.109 16.5392 104.147 16.7234 104.222 16.8941C104.296 17.0647 104.405 17.2182 104.542 17.3448C104.677 17.481 104.838 17.5883 105.015 17.6602C105.193 17.7321 105.383 17.767 105.575 17.7629C105.862 17.7672 106.145 17.6936 106.394 17.5497V16.73H105.575C105.488 16.7279 105.406 16.6927 105.345 16.6317C105.284 16.5706 105.249 16.4884 105.247 16.4021C105.247 16.3594 105.255 16.3172 105.272 16.2779C105.288 16.2385 105.313 16.2029 105.343 16.1731C105.374 16.1433 105.41 16.1199 105.45 16.1044C105.49 16.0888 105.532 16.0813 105.575 16.0824H106.722C106.765 16.0813 106.807 16.0888 106.847 16.1044C106.887 16.1199 106.923 16.1433 106.954 16.1731C106.984 16.2029 107.008 16.2385 107.025 16.2779C107.042 16.3172 107.05 16.3594 107.05 16.4021V17.6727C107.054 17.7054 107.054 17.7384 107.05 17.771C107.031 17.8278 106.993 17.8766 106.944 17.9104C106.569 18.1964 106.111 18.3519 105.64 18.3531C105.361 18.3696 105.082 18.33 104.819 18.2364C104.556 18.1428 104.314 17.9972 104.108 17.8083C103.903 17.6194 103.737 17.391 103.621 17.1367C103.506 16.8825 103.442 16.6076 103.435 16.3283Z" fill="#DBDBDB"/>
<path d="M110.976 17.9104C110.99 17.9502 110.996 17.9924 110.993 18.0344C110.991 18.0765 110.979 18.1176 110.96 18.1551C110.941 18.1927 110.914 18.2259 110.882 18.2529C110.85 18.2799 110.812 18.3 110.772 18.3121H110.649C110.57 18.3144 110.492 18.2915 110.427 18.2465C110.349 18.1998 110.287 18.1315 110.247 18.0497C110.153 17.8329 110.111 17.5971 110.124 17.3612C110.122 17.2741 110.097 17.1891 110.05 17.1153C110.008 17.0444 109.949 16.9852 109.878 16.9431C109.78 16.8812 109.672 16.8368 109.558 16.812H108.886V18.0579C108.885 18.0999 108.876 18.1413 108.859 18.1797C108.842 18.2181 108.817 18.2527 108.787 18.2816C108.756 18.3106 108.721 18.3332 108.681 18.3483C108.642 18.3633 108.6 18.3705 108.558 18.3694C108.476 18.3694 108.396 18.3366 108.338 18.2782C108.28 18.2198 108.247 18.1406 108.247 18.0579V14.6807C108.247 14.5981 108.28 14.5189 108.338 14.4604C108.396 14.402 108.476 14.3692 108.558 14.3692H109.591C109.917 14.3692 110.23 14.4987 110.461 14.7293C110.691 14.9599 110.821 15.2727 110.821 15.5988C110.821 15.7797 110.781 15.9583 110.703 16.1215C110.625 16.2847 110.511 16.4282 110.37 16.5415C110.448 16.6021 110.517 16.6739 110.575 16.7546C110.699 16.9384 110.765 17.1556 110.763 17.3776C110.752 17.4893 110.752 17.6019 110.763 17.7137C110.812 17.7267 110.857 17.7514 110.894 17.7857C110.931 17.82 110.96 17.8628 110.976 17.9104ZM110.157 15.5988C110.157 15.4423 110.095 15.2921 109.984 15.1814C109.873 15.0708 109.723 15.0086 109.567 15.0086H108.862V16.189H109.567C109.723 16.189 109.873 16.1268 109.984 16.0161C110.095 15.9054 110.157 15.7553 110.157 15.5988Z" fill="#DBDBDB"/>
<path d="M111.87 18.0743V14.6807C111.87 14.6391 111.878 14.5979 111.894 14.5596C111.911 14.5212 111.934 14.4865 111.964 14.4575C111.994 14.4284 112.029 14.4057 112.068 14.3905C112.107 14.3753 112.148 14.3681 112.19 14.3692H114.067C114.149 14.3713 114.227 14.4047 114.285 14.4627C114.343 14.5207 114.376 14.5987 114.378 14.6807C114.378 14.7649 114.346 14.8459 114.288 14.9069C114.23 14.968 114.151 15.0044 114.067 15.0086H112.509V16.0578H113.846C113.93 16.0578 114.012 16.0915 114.072 16.1514C114.132 16.2114 114.165 16.2927 114.165 16.3775C114.165 16.4623 114.132 16.5436 114.072 16.6036C114.012 16.6635 113.93 16.6972 113.846 16.6972H112.509V17.7464H114.067C114.151 17.7506 114.23 17.787 114.288 17.8481C114.346 17.9091 114.378 17.9901 114.378 18.0743C114.376 18.1563 114.343 18.2343 114.285 18.2923C114.227 18.3503 114.149 18.3837 114.067 18.3858H112.206C112.163 18.3892 112.12 18.3837 112.079 18.3696C112.039 18.3554 112.001 18.333 111.97 18.3038C111.938 18.2745 111.913 18.239 111.896 18.1995C111.879 18.16 111.87 18.1174 111.87 18.0743Z" fill="#DBDBDB"/>
<path d="M115.149 17.3858C115.205 17.3322 115.28 17.3023 115.358 17.3023C115.436 17.3023 115.511 17.3322 115.567 17.3858C115.874 17.6517 116.26 17.8075 116.665 17.8284C116.92 17.8356 117.17 17.7609 117.379 17.6153C117.45 17.5724 117.51 17.5126 117.553 17.4411C117.596 17.3696 117.62 17.2887 117.624 17.2055C117.626 17.1419 117.609 17.0792 117.575 17.0251C117.534 16.954 117.474 16.8948 117.403 16.853C117.152 16.7065 116.873 16.6144 116.583 16.5825C116.327 16.5359 116.076 16.4589 115.837 16.353C115.622 16.2576 115.438 16.1044 115.305 15.9103C115.22 15.7663 115.174 15.6022 115.173 15.4349C115.182 15.2722 115.228 15.1138 115.308 14.9717C115.387 14.8296 115.498 14.7076 115.633 14.6151C115.923 14.413 116.27 14.307 116.624 14.3119C117.079 14.3347 117.516 14.4947 117.879 14.7709C117.911 14.7924 117.939 14.8201 117.96 14.8524C117.982 14.8846 117.997 14.9208 118.004 14.9588C118.012 14.9969 118.012 15.0361 118.005 15.0742C117.997 15.1122 117.982 15.1485 117.961 15.1808C117.939 15.213 117.911 15.2408 117.879 15.2624C117.847 15.284 117.811 15.299 117.773 15.3066C117.735 15.3142 117.695 15.3143 117.657 15.3067C117.619 15.2992 117.583 15.2843 117.551 15.2627C117.288 15.0466 116.964 14.9177 116.624 14.8939C116.396 14.8914 116.173 14.9601 115.985 15.0906C115.922 15.129 115.87 15.1818 115.831 15.2444C115.793 15.3071 115.77 15.378 115.764 15.4513C115.749 15.505 115.749 15.5615 115.764 15.6152C115.807 15.6723 115.86 15.7221 115.919 15.7628C116.14 15.895 116.386 15.9814 116.641 16.0169C116.923 16.0623 117.198 16.1421 117.461 16.2546C117.691 16.3594 117.889 16.5235 118.034 16.73C118.123 16.8788 118.171 17.0485 118.174 17.2219C118.166 17.3996 118.117 17.5732 118.031 17.7284C117.944 17.8837 117.821 18.0162 117.674 18.1154C117.364 18.3304 116.994 18.4423 116.616 18.435C116.075 18.4117 115.556 18.2099 115.141 17.8612C115.105 17.8322 115.077 17.7956 115.058 17.7541C115.039 17.7126 115.029 17.6673 115.03 17.6215C115.031 17.5758 115.042 17.5309 115.062 17.49C115.083 17.4492 115.113 17.4136 115.149 17.3858Z" fill="#DBDBDB"/>
<path d="M118.92 17.3858C118.976 17.3322 119.051 17.3023 119.129 17.3023C119.206 17.3023 119.281 17.3322 119.338 17.3858C119.644 17.6517 120.031 17.8075 120.436 17.8284C120.691 17.8356 120.941 17.7609 121.149 17.6153C121.221 17.5724 121.281 17.5126 121.323 17.4411C121.366 17.3696 121.391 17.2887 121.395 17.2055C121.397 17.1419 121.38 17.0792 121.346 17.0251C121.302 16.9559 121.243 16.8972 121.174 16.853C120.923 16.7065 120.643 16.6144 120.354 16.5825C120.097 16.5359 119.847 16.4589 119.608 16.353C119.393 16.2576 119.209 16.1044 119.075 15.9103C118.99 15.7663 118.945 15.6022 118.944 15.4349C118.953 15.2722 118.999 15.1138 119.079 14.9717C119.158 14.8296 119.269 14.7076 119.403 14.6151C119.694 14.413 120.041 14.307 120.395 14.3119C120.85 14.3362 121.286 14.4961 121.649 14.7709C121.682 14.7924 121.709 14.8201 121.731 14.8524C121.753 14.8846 121.768 14.9208 121.775 14.9588C121.783 14.9969 121.783 15.0361 121.775 15.0742C121.768 15.1122 121.753 15.1485 121.731 15.1808C121.71 15.213 121.682 15.2408 121.65 15.2624C121.618 15.284 121.581 15.299 121.543 15.3066C121.505 15.3142 121.466 15.3143 121.428 15.3067C121.39 15.2992 121.354 15.2843 121.321 15.2627C121.058 15.0466 120.735 14.9177 120.395 14.8939C120.167 14.8914 119.943 14.9601 119.756 15.0906C119.693 15.129 119.64 15.1818 119.602 15.2444C119.563 15.3071 119.54 15.378 119.534 15.4513C119.533 15.5086 119.547 15.5652 119.575 15.6152C119.619 15.6723 119.672 15.7221 119.731 15.7628C119.952 15.895 120.197 15.9814 120.453 16.0169C120.734 16.0623 121.01 16.1421 121.272 16.2546C121.502 16.3594 121.7 16.5235 121.846 16.73C121.933 16.8795 121.978 17.0492 121.977 17.2219C121.972 17.399 121.924 17.5724 121.839 17.7277C121.753 17.883 121.632 18.0158 121.485 18.1154C121.175 18.3304 120.805 18.4423 120.428 18.435C119.886 18.4117 119.368 18.2099 118.952 17.8612C118.915 17.8354 118.883 17.8013 118.86 17.7615C118.837 17.7217 118.824 17.6773 118.821 17.6315C118.818 17.5857 118.825 17.5398 118.842 17.4973C118.859 17.4547 118.886 17.4166 118.92 17.3858Z" fill="#DBDBDB"/>
<path d="M155.241 15.0086H154.331V18.0743C154.331 18.1569 154.299 18.2362 154.24 18.2946C154.182 18.353 154.103 18.3858 154.02 18.3858C153.937 18.3859 153.856 18.3533 153.797 18.2951C153.737 18.2369 153.702 18.1577 153.7 18.0743V15.0086H152.782C152.698 15.0044 152.619 14.968 152.561 14.9069C152.503 14.8459 152.471 14.7649 152.471 14.6807C152.471 14.5981 152.504 14.5189 152.562 14.4604C152.62 14.402 152.7 14.3692 152.782 14.3692H155.241C155.325 14.3692 155.405 14.4017 155.465 14.4599C155.524 14.5181 155.559 14.5973 155.561 14.6807C155.559 14.7656 155.525 14.8467 155.466 14.9075C155.406 14.9683 155.326 15.0045 155.241 15.0086Z" fill="#DBDBDB"/>
<path d="M156.479 18.0743V14.6807C156.479 14.6391 156.488 14.5979 156.504 14.5596C156.52 14.5212 156.544 14.4865 156.573 14.4575C156.603 14.4284 156.639 14.4057 156.677 14.3905C156.716 14.3753 156.757 14.3681 156.799 14.3692H158.676C158.758 14.3713 158.836 14.4047 158.894 14.4627C158.952 14.5207 158.986 14.5987 158.988 14.6807C158.988 14.7649 158.956 14.8459 158.898 14.9069C158.84 14.968 158.76 15.0044 158.676 15.0086H157.119V16.0578H158.455C158.54 16.0578 158.621 16.0915 158.681 16.1514C158.741 16.2114 158.775 16.2927 158.775 16.3775C158.775 16.4623 158.741 16.5436 158.681 16.6036C158.621 16.6635 158.54 16.6972 158.455 16.6972H157.119V17.7464H158.676C158.76 17.7506 158.84 17.787 158.898 17.8481C158.956 17.9091 158.988 17.9901 158.988 18.0743C158.986 18.1563 158.952 18.2343 158.894 18.2923C158.836 18.3503 158.758 18.3837 158.676 18.3858H156.815C156.773 18.3892 156.729 18.3837 156.689 18.3696C156.648 18.3554 156.611 18.333 156.579 18.3038C156.548 18.2745 156.522 18.239 156.505 18.1995C156.488 18.16 156.479 18.1174 156.479 18.0743Z" fill="#DBDBDB"/>
<path d="M159.758 17.3858C159.815 17.3322 159.889 17.3023 159.967 17.3023C160.045 17.3023 160.12 17.3322 160.176 17.3858C160.483 17.6517 160.869 17.8075 161.275 17.8284C161.529 17.8356 161.779 17.7609 161.988 17.6153C162.06 17.5723 162.121 17.5126 162.165 17.4413C162.209 17.37 162.235 17.2891 162.242 17.2055C162.24 17.1411 162.221 17.0785 162.185 17.0251C162.143 16.954 162.084 16.8948 162.012 16.853C161.762 16.7049 161.482 16.6127 161.193 16.5825C160.938 16.5369 160.69 16.4598 160.455 16.353C160.236 16.2601 160.048 16.1065 159.914 15.9103C159.829 15.7663 159.784 15.6022 159.783 15.4349C159.792 15.2722 159.838 15.1138 159.917 14.9717C159.997 14.8296 160.108 14.7076 160.242 14.6151C160.533 14.413 160.88 14.307 161.234 14.3119C161.689 14.3347 162.126 14.4947 162.488 14.7709C162.551 14.8157 162.595 14.8832 162.611 14.9595C162.626 15.0357 162.611 15.115 162.57 15.1808C162.548 15.2131 162.521 15.2409 162.488 15.2625C162.456 15.2841 162.42 15.2992 162.382 15.3068C162.344 15.3144 162.305 15.3145 162.267 15.3069C162.228 15.2993 162.192 15.2843 162.16 15.2627C161.897 15.0466 161.573 14.9177 161.234 14.8939C161.005 14.8914 160.782 14.9601 160.594 15.0906C160.532 15.129 160.479 15.1818 160.44 15.2444C160.402 15.3071 160.379 15.378 160.373 15.4513C160.359 15.505 160.359 15.5615 160.373 15.6152C160.417 15.6723 160.469 15.7221 160.529 15.7628C160.75 15.895 160.995 15.9814 161.25 16.0169C161.532 16.0623 161.807 16.1421 162.07 16.2546C162.301 16.357 162.5 16.5215 162.644 16.73C162.733 16.8788 162.781 17.0485 162.783 17.2219C162.775 17.3986 162.727 17.5713 162.642 17.7262C162.556 17.8812 162.436 18.0144 162.291 18.1154C161.978 18.3306 161.605 18.4423 161.225 18.435C160.686 18.4142 160.169 18.212 159.758 17.8612C159.721 17.8338 159.691 17.798 159.67 17.7567C159.649 17.7154 159.638 17.6698 159.638 17.6235C159.638 17.5772 159.649 17.5316 159.67 17.4903C159.691 17.449 159.721 17.4132 159.758 17.3858Z" fill="#DBDBDB"/>
<path d="M166.086 15.0086H165.168V18.0743C165.168 18.1569 165.135 18.2362 165.077 18.2946C165.019 18.353 164.939 18.3858 164.857 18.3858C164.773 18.3858 164.693 18.3533 164.634 18.2951C164.574 18.2369 164.539 18.1577 164.537 18.0743V15.0086H163.635C163.55 15.0064 163.469 14.9709 163.409 14.9097C163.349 14.8484 163.316 14.7662 163.316 14.6807C163.316 14.6391 163.324 14.5979 163.34 14.5596C163.356 14.5212 163.38 14.4865 163.41 14.4575C163.44 14.4284 163.475 14.4057 163.514 14.3905C163.552 14.3753 163.594 14.3681 163.635 14.3692H166.095C166.177 14.3692 166.256 14.402 166.315 14.4604C166.373 14.5188 166.406 14.5981 166.406 14.6807C166.406 14.7662 166.373 14.8484 166.313 14.9097C166.253 14.9709 166.172 15.0064 166.086 15.0086Z" fill="#DBDBDB"/>
<path d="M167.382 14.6807C167.382 14.6391 167.39 14.5979 167.406 14.5596C167.422 14.5212 167.446 14.4865 167.476 14.4575C167.506 14.4284 167.541 14.4057 167.58 14.3905C167.618 14.3753 167.66 14.3681 167.701 14.3692C167.785 14.3692 167.865 14.4017 167.924 14.4599C167.984 14.5181 168.019 14.5973 168.021 14.6807V18.0743C168.019 18.1577 167.984 18.2369 167.924 18.2951C167.865 18.3533 167.785 18.3858 167.701 18.3858C167.66 18.3869 167.618 18.3797 167.58 18.3645C167.541 18.3493 167.506 18.3266 167.476 18.2975C167.446 18.2685 167.422 18.2338 167.406 18.1954C167.39 18.1571 167.382 18.1159 167.382 18.0743V14.6807Z" fill="#DBDBDB"/>
<path d="M169.726 18.0743C169.724 18.1563 169.69 18.2343 169.632 18.2923C169.574 18.3503 169.496 18.3837 169.414 18.3858C169.373 18.3869 169.332 18.3797 169.294 18.3644C169.256 18.3492 169.221 18.3262 169.192 18.2971C169.162 18.2679 169.14 18.2332 169.124 18.1949C169.109 18.1565 169.102 18.1155 169.103 18.0743V14.7381C169.102 14.6727 169.121 14.6086 169.158 14.5548C169.196 14.5011 169.249 14.4605 169.311 14.4387C169.372 14.4169 169.439 14.4152 169.502 14.4336C169.565 14.452 169.62 14.4897 169.66 14.5413L171.513 17.1071V14.7381C171.513 14.6554 171.546 14.5762 171.604 14.5178C171.663 14.4594 171.742 14.4266 171.824 14.4266C171.908 14.4265 171.988 14.4591 172.048 14.5173C172.107 14.5755 172.142 14.6547 172.144 14.7381V18.0743C172.142 18.1577 172.107 18.2369 172.048 18.2951C171.988 18.3533 171.908 18.3858 171.824 18.3858C171.78 18.3858 171.736 18.3754 171.696 18.3555C171.656 18.3356 171.622 18.3067 171.595 18.2711L169.759 15.7217L169.726 18.0743Z" fill="#DBDBDB"/>
<path d="M173.054 16.3283C173.061 15.934 173.177 15.5493 173.39 15.2175C173.603 14.8856 173.905 14.6197 174.26 14.4494C174.616 14.2792 175.012 14.2115 175.405 14.2537C175.797 14.296 176.169 14.4467 176.481 14.6889C176.55 14.7411 176.596 14.8187 176.608 14.9048C176.621 14.9909 176.598 15.0784 176.546 15.1479C176.491 15.2168 176.412 15.2614 176.324 15.2721C176.237 15.2828 176.149 15.2589 176.079 15.2053C175.797 14.9861 175.445 14.8761 175.088 14.8957C174.731 14.9153 174.393 15.0631 174.136 15.3119C174.002 15.4398 173.895 15.5936 173.822 15.7641C173.748 15.9346 173.711 16.1182 173.711 16.3037C173.711 16.4893 173.748 16.6729 173.822 16.8434C173.895 17.0139 174.002 17.1677 174.136 17.2956C174.272 17.4303 174.433 17.5366 174.611 17.6084C174.788 17.6801 174.978 17.7159 175.169 17.7137C175.456 17.718 175.74 17.6444 175.989 17.5005V16.6808H175.169C175.082 16.6808 174.999 16.6463 174.937 16.5848C174.876 16.5233 174.841 16.4399 174.841 16.3529C174.841 16.3102 174.85 16.268 174.866 16.2287C174.883 16.1893 174.907 16.1537 174.938 16.1239C174.968 16.0941 175.004 16.0708 175.044 16.0552C175.084 16.0396 175.126 16.0321 175.169 16.0332H176.317C176.359 16.0321 176.402 16.0396 176.441 16.0552C176.481 16.0708 176.517 16.0941 176.548 16.1239C176.578 16.1537 176.603 16.1893 176.619 16.2287C176.636 16.268 176.644 16.3102 176.644 16.3529V17.6235C176.648 17.6562 176.648 17.6892 176.644 17.7219C176.619 17.7773 176.579 17.8252 176.53 17.8612C176.156 18.1494 175.698 18.3052 175.226 18.3039C174.677 18.3284 174.14 18.1344 173.733 17.7642C173.326 17.394 173.082 16.8778 173.054 16.3283Z" fill="#DBDBDB"/>
<path d="M219.114 18.0743V14.6807C219.114 14.6391 219.122 14.5979 219.139 14.5596C219.155 14.5212 219.178 14.4865 219.208 14.4575C219.238 14.4284 219.273 14.4057 219.312 14.3905C219.351 14.3753 219.392 14.3681 219.434 14.3692H220.106C220.639 14.3692 221.149 14.5808 221.526 14.9574C221.903 15.334 222.114 15.8449 222.114 16.3775C222.114 16.9101 221.903 17.421 221.526 17.7976C221.149 18.1742 220.639 18.3858 220.106 18.3858H219.434C219.392 18.3869 219.351 18.3797 219.312 18.3645C219.273 18.3493 219.238 18.3266 219.208 18.2975C219.178 18.2685 219.155 18.2338 219.139 18.1954C219.122 18.1571 219.114 18.1159 219.114 18.0743ZM219.754 17.7464H220.106C220.469 17.7464 220.817 17.6022 221.074 17.3455C221.331 17.0888 221.475 16.7406 221.475 16.3775C221.475 16.0144 221.331 15.6662 221.074 15.4095C220.817 15.1528 220.469 15.0086 220.106 15.0086H219.754V17.7464Z" fill="#DBDBDB"/>
<path d="M226.328 14.8692C226.696 15.2626 226.901 15.7813 226.901 16.3201C226.901 16.8589 226.696 17.3776 226.328 17.771C226.153 17.9631 225.941 18.117 225.704 18.2228C225.467 18.3286 225.21 18.3841 224.951 18.3858C224.687 18.386 224.426 18.3315 224.185 18.2257C223.944 18.1198 223.727 17.965 223.549 17.771C223.181 17.3776 222.976 16.8589 222.976 16.3201C222.976 15.7813 223.181 15.2626 223.549 14.8692C223.727 14.6752 223.944 14.5204 224.185 14.4146C224.426 14.3087 224.687 14.2542 224.951 14.2544C225.21 14.2561 225.467 14.3116 225.704 14.4174C225.941 14.5232 226.153 14.6771 226.328 14.8692ZM226.254 16.3201C226.254 15.9465 226.114 15.5864 225.86 15.3118C225.744 15.1868 225.603 15.0867 225.447 15.0176C225.29 14.9486 225.122 14.912 224.951 14.9102C224.777 14.9088 224.604 14.9438 224.445 15.013C224.285 15.0822 224.142 15.184 224.024 15.3118C223.768 15.5846 223.627 15.9458 223.631 16.3201C223.625 16.6923 223.766 17.0518 224.024 17.3202C224.142 17.4491 224.285 17.5522 224.444 17.6228C224.604 17.6933 224.776 17.7299 224.951 17.73C225.122 17.7267 225.291 17.6886 225.447 17.6182C225.604 17.5477 225.744 17.4464 225.86 17.3202C226.115 17.0495 226.256 16.6915 226.254 16.3201Z" fill="#DBDBDB"/>
<path d="M228.516 18.0743C228.514 18.1563 228.481 18.2343 228.423 18.2923C228.365 18.3503 228.287 18.3838 228.205 18.3858C228.164 18.387 228.123 18.3797 228.084 18.3644C228.046 18.3492 228.011 18.3263 227.982 18.2971C227.953 18.268 227.93 18.2332 227.915 18.1949C227.9 18.1566 227.892 18.1156 227.893 18.0743V14.7381C227.889 14.6874 227.898 14.6364 227.919 14.5903C227.941 14.5442 227.974 14.5047 228.016 14.4758C228.083 14.4271 228.166 14.4066 228.247 14.4189C228.329 14.4312 228.402 14.4752 228.451 14.5414L230.303 17.1071V14.7381C230.303 14.6555 230.336 14.5762 230.395 14.5178C230.453 14.4594 230.532 14.4266 230.615 14.4266C230.698 14.4266 230.778 14.4591 230.838 14.5173C230.898 14.5755 230.932 14.6547 230.935 14.7381V18.0743C230.932 18.1577 230.898 18.2369 230.838 18.2951C230.778 18.3533 230.698 18.3859 230.615 18.3858C230.569 18.3859 230.524 18.3755 230.483 18.3557C230.442 18.3358 230.406 18.3069 230.377 18.2711L228.541 15.7217L228.516 18.0743Z" fill="#DBDBDB"/>
<path d="M231.935 18.0743V14.6807C231.935 14.6391 231.943 14.5979 231.959 14.5596C231.975 14.5212 231.999 14.4865 232.029 14.4575C232.059 14.4284 232.094 14.4057 232.133 14.3905C232.171 14.3753 232.213 14.3681 232.254 14.3692H234.131C234.213 14.3713 234.291 14.4047 234.349 14.4627C234.407 14.5207 234.441 14.5987 234.443 14.6807C234.443 14.7649 234.411 14.8459 234.353 14.9069C234.295 14.968 234.216 15.0044 234.131 15.0086H232.574V16.0578H233.935C234.017 16.0599 234.095 16.0934 234.153 16.1513C234.211 16.2093 234.244 16.2873 234.246 16.3693C234.247 16.4113 234.24 16.4531 234.225 16.4923C234.21 16.5315 234.187 16.5673 234.158 16.5978C234.129 16.6282 234.095 16.6527 234.056 16.6697C234.018 16.6868 233.977 16.6961 233.935 16.6972H232.599V17.7464H234.156C234.24 17.7506 234.319 17.787 234.377 17.8481C234.435 17.9091 234.468 17.9901 234.468 18.0743C234.465 18.1563 234.432 18.2343 234.374 18.2923C234.316 18.3503 234.238 18.3837 234.156 18.3858H232.295C232.25 18.393 232.205 18.3903 232.161 18.3779C232.117 18.3655 232.077 18.3437 232.042 18.314C232.008 18.2843 231.981 18.2475 231.962 18.2061C231.943 18.1647 231.934 18.1197 231.935 18.0743Z" fill="#DBDBDB"/>
<path d="M102.115 34.6491C96.3919 35.3356 90.986 37.6516 86.5407 41.3217C84.3429 43.1362 82.5477 45.3892 81.2699 47.9368C80.6512 49.2066 80.2099 50.5553 79.9583 51.9452C79.7223 53.3351 79.6946 54.7524 79.8764 56.1504C80.19 58.9592 81.4201 61.5866 83.3766 63.6262C85.3979 65.6022 87.8844 67.0371 90.6065 67.7986C93.3377 68.5891 96.1583 69.0298 99.0004 69.1102C101.847 69.2212 104.697 69.106 107.526 68.7659C110.34 68.4181 113.086 67.6413 115.665 66.4625C118.241 65.2809 120.563 63.6106 122.502 61.5442C124.433 59.4854 125.839 56.9912 126.6 54.2732C127.414 51.5717 127.252 48.6698 126.141 46.076C124.863 43.5513 122.867 41.4609 120.403 40.0675C117.936 38.6314 115.25 37.6096 112.452 37.0427C106.82 35.8373 100.968 36.1428 95.492 37.928C100.962 36.0129 106.841 35.5774 112.534 36.6656C115.388 37.1949 118.134 38.1979 120.657 39.633C123.243 41.0528 125.351 43.2062 126.715 45.8219C127.355 47.1585 127.715 48.6118 127.773 50.0927C127.845 51.565 127.685 53.0395 127.297 54.4618C126.511 57.3002 125.052 59.907 123.043 62.0606C121.044 64.2036 118.651 65.9404 115.993 67.1756C113.345 68.408 110.522 69.2211 107.624 69.5856C104.746 69.9229 101.846 70.0271 98.9513 69.8971C96.046 69.8005 93.1648 69.335 90.377 68.5118C87.5429 67.7042 84.9578 66.196 82.8601 64.1263C80.8104 61.9714 79.5407 59.1925 79.2534 56.2324C79.0783 54.7746 79.1253 53.2987 79.3927 51.8551C79.6744 50.4312 80.1488 49.0523 80.8027 47.7565C82.1368 45.164 84.0027 42.882 86.2784 41.0593C90.8315 37.4447 96.33 35.2191 102.115 34.6491Z" fill="#263238"/>
<path d="M47.1449 45.8874C48.483 43.6438 50.3379 41.7523 52.555 40.3707C53.6814 39.685 54.9142 39.1918 56.2028 38.9116C57.4955 38.6549 58.8203 38.6024 60.1293 38.7559C61.4625 38.8737 62.7551 39.2755 63.9202 39.9344C65.0852 40.5933 66.0957 41.4939 66.8838 42.5758C67.2685 43.1393 67.5643 43.7585 67.7609 44.4119C67.9759 45.0855 68.0071 45.8044 67.851 46.494C67.7651 46.8677 67.5894 47.2148 67.3392 47.5053C67.089 47.7958 66.7719 48.021 66.4151 48.1614C66.0584 48.3019 65.6728 48.3533 65.2917 48.3113C64.9106 48.2693 64.5455 48.1351 64.2279 47.9204C63.6633 47.4335 63.2888 46.7628 63.1704 46.0268C63.044 45.3484 63.0191 44.655 63.0967 43.9693C63.2564 42.6264 63.6799 41.3283 64.3426 40.1494C65.6717 37.7809 67.7892 35.9535 70.3266 34.9852C72.8226 33.9596 75.6001 33.8464 78.1713 34.6655C80.6693 35.5674 82.8433 37.1907 84.4176 39.3297L84.2946 39.428C82.6095 37.5053 80.4248 36.0866 77.9828 35.3294C76.7808 34.9801 75.5253 34.8523 74.2776 34.9524C73.0293 35.0618 71.8064 35.369 70.6545 35.8623C68.3312 36.8025 66.3873 38.4897 65.1296 40.6576C64.5135 41.7326 64.1074 42.9148 63.9328 44.1414C63.8424 44.7392 63.8424 45.3471 63.9328 45.9448C64.0046 46.4971 64.2619 47.0087 64.6623 47.3957C64.8722 47.5505 65.1196 47.6465 65.3789 47.6738C65.6383 47.7012 65.9002 47.659 66.1378 47.5515C66.3905 47.4608 66.6158 47.307 66.7923 47.1047C66.9688 46.9024 67.0905 46.6583 67.1461 46.3957C67.244 45.8026 67.2219 45.196 67.0811 44.6117C66.9403 44.0273 66.6836 43.4772 66.3264 42.9938C65.6005 41.9691 64.6641 41.1113 63.5798 40.4779C62.4954 39.8446 61.2882 39.4503 60.0391 39.3215C58.7799 39.1614 57.504 39.1863 56.252 39.3953C54.9968 39.6336 53.7894 40.0767 52.678 40.7068C50.4529 42.0116 48.5725 43.8301 47.1941 46.0104L47.1449 45.8874Z" fill="#263238"/>
<path d="M80.155 38.7969L84.0979 39.1657L84.1799 35.2065L84.8848 40.0429L80.155 38.7969Z" fill="#263238"/>
<path d="M149.503 95.1363C148.524 98.7167 148.052 102.417 148.102 106.129C148.075 109.824 148.751 113.49 150.094 116.933C150.773 118.632 151.666 120.237 152.749 121.712C154.924 124.652 157.723 127.074 160.947 128.802C161.766 129.294 162.586 129.622 163.406 130.056C164.226 130.491 165.119 130.753 165.972 131.114L165.914 131.319C162.243 130.426 158.808 128.748 155.848 126.4C152.925 123.958 150.702 120.784 149.405 117.203C148.122 113.662 147.519 109.91 147.626 106.145C147.699 102.409 148.289 98.7016 149.38 95.1281L149.503 95.1363Z" fill="#263238"/>
<path d="M161.627 132.876L165.627 131.073L163.537 127.212L166.865 131.491L161.627 132.876Z" fill="#263238"/>
<path d="M203.482 57.839C205.121 57.716 206.72 57.6586 208.335 57.6095C209.95 57.5603 211.614 57.5439 213.196 57.5357C214.778 57.5275 216.434 57.5357 218.048 57.6013C219.663 57.6668 221.286 57.716 222.909 57.839C221.27 57.9701 219.671 58.0275 218.048 58.0767C216.425 58.1259 214.81 58.1423 213.196 58.1505C211.581 58.1587 209.958 58.1505 208.335 58.0767C206.712 58.0029 205.097 57.9701 203.482 57.839Z" fill="#263238"/>
<path d="M203.482 60.1588C206.973 59.7544 210.499 59.7544 213.991 60.1588C210.5 60.5741 206.973 60.5741 203.482 60.1588Z" fill="#263238"/>
<path d="M203.482 62.4786C204.916 62.3557 206.343 62.2983 207.777 62.2491C209.212 62.1999 210.638 62.1835 212.073 62.1754C213.507 62.1672 214.942 62.1753 216.368 62.2491C217.794 62.3229 219.237 62.3557 220.663 62.4786C219.237 62.6098 217.802 62.6672 216.368 62.7164C214.933 62.7655 213.507 62.7819 212.073 62.7901C210.638 62.7983 209.212 62.7901 207.777 62.7164C206.343 62.6426 204.916 62.6098 203.482 62.4786Z" fill="#263238"/>
<path d="M203.482 64.8066C204.646 64.6755 205.81 64.6181 206.974 64.5689C208.138 64.5197 209.31 64.5033 210.474 64.4951C211.638 64.4869 212.802 64.4951 213.966 64.5689C215.13 64.6427 216.302 64.6755 217.466 64.8066C216.302 64.9296 215.138 64.987 213.966 65.0362C212.794 65.0853 211.638 65.1017 210.474 65.1099C209.31 65.1181 208.146 65.1099 206.974 65.0362C205.802 64.9624 204.646 64.9296 203.482 64.8066Z" fill="#263238"/>
<path d="M105.337 114.801C106.976 114.678 108.575 114.621 110.19 114.564C111.805 114.506 113.469 114.506 115.042 114.498C116.616 114.49 118.28 114.498 119.903 114.564C121.526 114.629 123.182 114.678 124.756 114.801C123.117 114.933 121.518 114.99 119.903 115.039C118.289 115.088 116.665 115.105 115.042 115.113C113.419 115.121 111.764 115.113 110.19 115.039C108.616 114.965 106.952 114.933 105.337 114.801Z" fill="#263238"/>
<path d="M105.337 117.121C106.583 116.998 107.796 116.941 109.083 116.892C110.37 116.842 111.583 116.826 112.829 116.818C114.075 116.81 115.329 116.818 116.583 116.883C117.838 116.949 119.043 116.998 120.33 117.121C119.084 117.252 117.87 117.31 116.583 117.359C115.297 117.408 114.083 117.424 112.829 117.433C111.575 117.441 110.37 117.433 109.083 117.359C107.796 117.285 106.583 117.252 105.337 117.121Z" fill="#263238"/>
<path d="M105.337 119.441C106.763 119.318 108.198 119.261 109.632 119.211C111.067 119.162 112.493 119.146 113.928 119.138C115.362 119.129 116.788 119.138 118.223 119.211C119.657 119.285 121.084 119.318 122.518 119.441C121.084 119.572 119.657 119.63 118.223 119.679C116.788 119.728 115.362 119.744 113.928 119.752C112.493 119.761 111.059 119.752 109.632 119.679C108.206 119.605 106.763 119.572 105.337 119.441Z" fill="#263238"/>
<path d="M93.0711 75.6287C82.5459 83.8833 64.5121 106.876 66.8565 112.147C71.6273 122.804 87.8577 136.075 92.0137 138.534C94.4729 139.96 109.589 123.394 107.236 121.533C104.482 119.353 87.7184 107.819 87.4807 106.475C87.3003 105.442 94.0384 93.1543 98.842 82.834C104.408 70.8825 98.1206 71.7022 93.0711 75.6287Z" fill="#D3766A"/>
<path d="M104.736 120.41C104.736 120.41 112.531 123.918 117.523 126.46C120.31 127.869 124.901 130.722 126.434 132.698C128.778 135.657 136.713 149.51 133.393 151.502C130.393 153.314 125.089 140.542 125.089 140.542C125.089 140.542 131.581 152.953 127.548 154.478C123.515 156.002 119.458 140.764 119.458 140.764C119.458 140.764 125.843 153.666 121.45 154.568C118.171 155.256 113.671 141.674 113.671 141.674C113.671 141.674 119.081 152.797 115.695 153.65C111.966 154.584 107.055 142.305 107.055 142.305C98.0959 143.018 92.3005 140.28 89.9725 135.993C89.5216 135.099 104.736 120.41 104.736 120.41Z" fill="#D3766A"/>
<path d="M123.122 136.108C123.942 137.534 124.761 138.977 125.458 140.477C126.155 141.977 126.77 143.493 127.319 145.051C128.068 147.07 128.582 149.169 128.852 151.305C128.089 147.551 125.72 142.149 125.04 140.649C124.36 139.149 123.745 137.624 123.065 136.132C123.04 136.091 123.097 136.075 123.122 136.108Z" fill="#263238"/>
<path d="M117.663 138.485C118.63 140.354 119.654 142.174 120.532 144.092C121.409 146.01 122.073 147.879 122.81 149.83C122.868 149.986 122.769 149.961 122.704 149.83C121.884 147.903 120.982 146.182 120.138 144.264C119.294 142.346 118.499 140.387 117.622 138.526L117.663 138.485Z" fill="#263238"/>
<path d="M112.621 139.682C114.163 142.517 115.41 145.502 116.343 148.592C116.392 148.74 116.269 148.707 116.203 148.592C115.023 145.608 114.121 143.256 112.523 139.78C112.498 139.682 112.58 139.624 112.621 139.682Z" fill="#263238"/>
<path d="M103.154 118.213L88.5953 138.501C88.5953 138.501 65.7415 118.443 65.8317 110.901C65.9219 103.36 82.2999 83.1701 91.8004 75.8746C101.301 68.5791 103.063 74.3335 99.6124 82.7766C96.1613 91.2198 88.1035 106.409 88.3658 106.778C88.6281 107.147 103.154 118.213 103.154 118.213Z" fill="#9158C0"/>
<path d="M92.2759 125.336C93.3333 124 94.3662 122.631 95.3908 121.238C95.8826 120.582 96.3827 119.935 96.8581 119.262C97.3335 118.59 97.9483 117.844 98.3992 117.09C98.4079 117.08 98.4123 117.067 98.4116 117.054C98.4108 117.041 98.4049 117.029 98.3951 117.02C98.3853 117.012 98.3725 117.007 98.3594 117.008C98.3463 117.009 98.3341 117.015 98.3254 117.025C97.7024 117.648 97.1532 118.377 96.5712 119.033C95.9892 119.689 95.5138 120.287 94.9973 120.918C93.9153 122.238 92.8251 123.558 91.7758 124.902C89.661 127.591 87.6362 130.337 85.6361 133.099C85.6253 133.113 85.6205 133.131 85.6228 133.149C85.6251 133.167 85.6343 133.183 85.6484 133.194C85.6626 133.204 85.6804 133.209 85.6981 133.207C85.7158 133.205 85.7318 133.195 85.7427 133.181C87.9641 130.632 90.1528 128.017 92.2759 125.336Z" fill="#263238"/>
<path d="M105.391 280.903C102.211 280.378 98.35 280.944 95.981 283.256C95.8826 283.346 95.981 283.477 96.1122 283.436C99.1183 282.399 102.226 281.685 105.383 281.305C105.43 281.296 105.472 281.272 105.503 281.236C105.533 281.2 105.551 281.155 105.552 281.107C105.553 281.06 105.537 281.014 105.508 280.977C105.479 280.939 105.438 280.913 105.391 280.903Z" fill="#263238"/>
<path d="M107.703 282.231C104.522 281.706 100.662 282.28 98.2926 284.584C98.2024 284.674 98.2926 284.805 98.4319 284.764C101.438 283.726 104.546 283.012 107.703 282.633C107.749 282.623 107.791 282.598 107.821 282.562C107.851 282.525 107.867 282.479 107.867 282.432C107.867 282.385 107.851 282.339 107.821 282.302C107.791 282.266 107.749 282.24 107.703 282.231Z" fill="#263238"/>
<path d="M110.015 283.559C106.842 283.034 102.981 283.608 100.604 285.912C100.514 286.002 100.604 286.133 100.744 286.1C103.748 285.057 106.856 284.339 110.015 283.961C110.061 283.951 110.103 283.926 110.132 283.89C110.162 283.853 110.179 283.807 110.179 283.76C110.179 283.713 110.162 283.667 110.132 283.63C110.103 283.594 110.061 283.568 110.015 283.559Z" fill="#263238"/>
<path d="M123.827 297.929C122.187 298.445 74.4223 297.207 72.6353 296.011C71.9467 295.56 71.7254 288.633 71.6926 280.174V279.911L102.49 280.362V280.887C102.49 280.887 120.523 289.535 122.376 291.059C124.229 292.584 125.507 297.404 123.827 297.929Z" fill="#37474F"/>
<path d="M71.6926 279.903V280.19C71.6926 288.608 71.9467 295.568 72.6353 296.019C73.3239 296.47 83.7835 297.117 94.9645 297.519C108.342 297.986 122.909 298.224 123.827 297.945C125.466 297.42 124.155 292.592 122.343 291.068C120.532 289.543 102.465 280.887 102.465 280.887V280.37L92.2266 280.19L71.6926 279.903Z" fill="#9158C0"/>
<path d="M123.335 296.068C115.294 295.658 82.8245 294.781 74.8486 294.986C74.783 294.986 74.783 295.035 74.8486 295.035C82.8081 295.617 115.277 296.232 123.327 296.199C123.532 296.199 123.532 296.076 123.335 296.068Z" fill="#263238"/>
<path opacity="0.1" d="M92.2266 280.19C92.9725 285.346 94.1201 292.953 94.9644 297.486C108.342 297.953 122.909 298.191 123.827 297.912C125.466 297.388 124.155 292.56 122.343 291.035C120.532 289.51 102.465 280.887 102.465 280.887V280.37L92.2266 280.19Z" fill="black"/>
<path d="M68.9138 280.354L103.449 280.682C103.449 280.682 113.056 153.371 104.514 120.017H78.6931C78.6931 120.017 71.7664 134.173 75.7257 150.108L74.4879 207.432L68.9138 280.354Z" fill="#37474F"/>
<path d="M71.4714 274.304C72.3849 274.181 73.3043 274.108 74.2257 274.083C75.2421 274.009 76.2586 273.935 77.2832 273.894C79.2506 273.813 81.2152 273.769 83.177 273.763C87.1445 273.763 91.1119 273.763 95.0794 273.903C97.3336 273.976 99.5878 274.067 101.842 274.198C101.924 274.198 101.924 274.337 101.842 274.337C97.9156 274.476 93.981 274.542 90.0463 274.616C86.1116 274.69 82.1852 274.772 78.2587 274.698C77.1275 274.698 76.0045 274.698 74.8733 274.599C73.742 274.501 72.5944 274.599 71.496 274.436C71.4222 274.452 71.3977 274.321 71.4714 274.304Z" fill="#263238"/>
<path d="M100.965 243.303C101.367 234.007 101.662 224.703 101.916 215.432C102.424 196.824 102.558 178.211 102.317 159.593C102.186 149.149 101.908 138.714 101.596 128.271C101.596 128.156 101.776 128.156 101.785 128.271C102.768 146.953 103.145 165.683 103.17 184.389C103.195 203.095 102.801 221.629 101.883 240.22C101.367 250.655 100.727 261.099 99.7517 271.501C99.7517 271.52 99.7439 271.539 99.7301 271.553C99.7162 271.567 99.6975 271.575 99.6779 271.575C99.6583 271.575 99.6396 271.567 99.6257 271.553C99.6119 271.539 99.6041 271.52 99.6041 271.501C100.03 262.041 100.58 252.656 100.965 243.303Z" fill="#263238"/>
<path d="M109.457 252.975C109.457 252.975 109.72 284.207 109.72 284.223C109.72 290.199 109.859 295.429 110.179 298.158V298.199C110.187 298.84 110.341 299.471 110.629 300.044C110.629 300.044 110.629 300.044 110.629 300.085C112.408 301.281 160.141 302.544 161.821 302.003C163.501 301.462 162.157 296.658 160.346 295.133C158.534 293.609 140.459 284.961 140.459 284.961L139.926 253.729L109.457 252.975Z" fill="#D3766A"/>
<path d="M109.662 277.813C109.662 277.813 109.719 284.207 109.719 284.223C109.719 290.199 109.859 295.429 110.179 298.158V298.199C110.254 298.83 110.405 299.449 110.629 300.044C110.629 300.044 110.629 300.044 110.629 300.085C112.408 301.281 160.141 302.544 161.821 302.003C163.501 301.462 162.157 296.658 160.345 295.133C158.534 293.609 140.459 284.961 140.459 284.961V278.452L109.662 277.813Z" fill="white"/>
<path d="M143.418 284.952C140.238 284.428 136.377 285.002 134.008 287.305C133.909 287.395 134.008 287.526 134.147 287.494C137.149 286.449 140.254 285.732 143.41 285.354C143.457 285.346 143.499 285.321 143.529 285.285C143.56 285.249 143.577 285.204 143.578 285.157C143.579 285.109 143.564 285.063 143.535 285.026C143.506 284.989 143.464 284.963 143.418 284.952Z" fill="#263238"/>
<path d="M145.73 286.28C142.549 285.756 138.688 286.33 136.32 288.633C136.229 288.723 136.36 288.854 136.459 288.822C139.464 287.781 142.572 287.064 145.73 286.682C145.776 286.673 145.818 286.648 145.848 286.611C145.878 286.574 145.894 286.529 145.894 286.481C145.894 286.434 145.878 286.388 145.848 286.352C145.818 286.315 145.776 286.29 145.73 286.28Z" fill="#263238"/>
<path d="M148.05 287.608C144.869 287.092 141.008 287.658 138.631 289.961C138.541 290.051 138.672 290.182 138.771 290.15C141.776 289.11 144.884 288.393 148.042 288.01C148.088 288.002 148.13 287.977 148.161 287.941C148.192 287.905 148.209 287.86 148.21 287.813C148.211 287.765 148.195 287.719 148.166 287.682C148.137 287.645 148.096 287.619 148.05 287.608Z" fill="#263238"/>
<path d="M161.854 301.978C160.173 302.503 112.449 301.257 110.662 300.06C109.974 299.617 109.752 292.682 109.719 284.223V283.961L140.516 284.42V284.936C140.516 284.936 158.55 293.584 160.403 295.117C162.255 296.65 163.534 301.503 161.854 301.978Z" fill="#9158C0"/>
<path d="M161.362 300.117C153.32 299.707 120.851 298.83 112.875 299.035C112.81 299.035 112.81 299.084 112.875 299.093C120.835 299.667 153.304 300.281 161.354 300.249C161.526 300.249 161.534 300.126 161.362 300.117Z" fill="#263238"/>
<path d="M93.6775 153.076C93.6775 153.076 104.285 199.12 103.998 205.94C103.711 212.932 107.424 284.739 107.424 284.739L143.287 284.952C143.287 284.952 140.262 211.727 139.697 204.44C138.656 190.799 126.704 153.371 118.163 120.008H79.4963C79.4963 120.008 79.8324 137.468 87.7755 150.1C87.7755 150.117 91.3741 151.781 93.6775 153.076Z" fill="#37474F"/>
<path d="M81.3817 146.912C84.3163 148.551 87.3657 149.994 90.3986 151.436C91.9233 152.158 93.4535 152.863 94.9891 153.551C95.7596 153.896 96.5138 154.289 97.3007 154.601C98.0876 154.912 98.768 155.166 99.4811 155.519C99.491 155.527 99.498 155.539 99.5013 155.551C99.5046 155.564 99.504 155.578 99.4996 155.59C99.4952 155.602 99.4871 155.613 99.4765 155.621C99.466 155.628 99.4533 155.633 99.4402 155.633C98.6303 155.523 97.83 155.35 97.0466 155.117C96.3088 154.904 95.5547 154.748 94.8169 154.527C95.5875 157.347 96.0875 160.265 96.6695 163.101C97.3171 166.224 97.9401 169.355 98.5713 172.487C99.8336 178.739 101.091 184.996 102.342 191.258C102.957 194.308 103.604 197.357 104.055 200.431C104.483 203.529 104.718 206.649 104.76 209.776C104.924 216.129 104.998 222.482 105.088 228.834C105.195 235.982 105.26 243.139 105.162 250.286C105.162 250.393 104.998 250.385 104.998 250.286C104.277 237.614 103.981 224.916 103.695 212.227C103.621 209.087 103.572 205.94 103.219 202.825C102.867 199.71 102.268 196.718 101.653 193.693C100.391 187.463 99.1123 181.244 97.8171 175.036C97.1121 171.544 96.3935 168.069 95.6612 164.609C95.3006 162.847 94.9563 161.093 94.6038 159.33C94.2513 157.568 93.9152 155.928 93.7021 154.207C92.3874 153.762 91.0961 153.25 89.833 152.674C86.7414 151.214 83.8354 149.389 81.1768 147.239C81.0292 147.075 81.185 146.797 81.3817 146.912Z" fill="#263238"/>
<path d="M108.039 278.132C112.351 278.009 116.818 277.887 121.155 277.993C125.491 278.1 129.721 278.157 133.991 278.403C136.451 278.542 138.828 278.616 141.246 278.846C141.259 278.85 141.269 278.859 141.277 278.87C141.285 278.881 141.289 278.894 141.289 278.907C141.289 278.92 141.285 278.934 141.277 278.945C141.269 278.956 141.259 278.964 141.246 278.969C136.934 279.214 132.606 279.165 128.294 279.124C123.983 279.083 119.736 279.042 115.458 278.854C112.998 278.747 110.621 278.632 108.203 278.469C107.957 278.452 107.777 278.132 108.039 278.132Z" fill="#263238"/>
<path d="M115.335 149.166C116.531 153.166 117.54 157.232 118.614 161.265C119.687 165.298 120.778 169.396 121.892 173.47C123.966 181.348 125.991 189.234 127.573 197.242C129.165 205.266 130.064 213.411 130.262 221.588C130.442 229.925 130.262 238.269 130.213 246.606C130.163 254.943 130.081 263.369 129.942 271.747C129.942 272.788 129.942 273.829 129.86 274.87C129.855 274.886 129.844 274.901 129.83 274.911C129.816 274.921 129.8 274.926 129.782 274.926C129.765 274.926 129.748 274.921 129.734 274.911C129.72 274.901 129.71 274.886 129.704 274.87C129.483 266.533 129.598 258.18 129.631 249.844C129.663 241.507 129.762 233.163 129.696 224.826C129.665 216.548 128.949 208.288 127.557 200.128C126.147 192.103 124.171 184.201 122.114 176.315C120.95 171.823 119.761 167.298 118.597 162.839C117.433 158.379 116.138 153.822 115.13 149.24C115.135 149.219 115.145 149.199 115.16 149.183C115.174 149.167 115.192 149.155 115.213 149.148C115.233 149.141 115.255 149.139 115.276 149.142C115.297 149.145 115.317 149.153 115.335 149.166Z" fill="#263238"/>
<path d="M107.957 80.4322C105.375 80.8667 100.735 76.3336 99.2189 73.0547C99.1205 72.8334 99.5959 70.5956 100.039 67.8167C100.301 66.1773 100.563 64.2591 100.678 62.5377L111.334 65.8822C110.574 67.9994 110.076 70.2017 109.851 72.4399C109.83 72.6772 109.83 72.9158 109.851 73.1531C109.851 73.1531 109.851 73.2269 109.851 73.2679C110.072 74.6614 110.482 80.0142 107.957 80.4322Z" fill="#D3766A"/>
<path d="M109.933 73.1859C109.933 73.1859 109.933 73.2597 109.933 73.3088C109.561 73.3331 109.189 73.3331 108.818 73.3088C102.449 72.6285 101.252 65.3822 101.031 62.6525L111.384 65.9314C110.625 68.049 110.126 70.2511 109.9 72.4891C109.895 72.7219 109.906 72.9547 109.933 73.1859Z" fill="#263238"/>
<path d="M97.604 51.201C96.9482 55.1766 100.44 65.9559 103.481 68.0298C107.891 71.0628 114.384 70.5464 116.777 65.4149C119.097 60.431 114.318 46.4958 110.974 44.6678C106.072 41.9709 98.5713 45.3318 97.604 51.201Z" fill="#D3766A"/>
<path d="M109.662 56.4062C109.662 56.4062 109.662 56.4554 109.662 56.4882C109.908 57.2095 110.064 58.0784 109.482 58.5211C109.482 58.5211 109.482 58.5703 109.482 58.5621C110.236 58.1604 110.015 57.0128 109.662 56.4062Z" fill="#263238"/>
<path d="M108.777 55.7996C107.572 56.0701 108.203 58.4473 109.31 58.2014C110.416 57.9555 109.785 55.5865 108.777 55.7996Z" fill="#263238"/>
<path d="M113.802 55.2668C113.802 55.2668 113.867 55.2668 113.875 55.3242C114.048 56.0619 114.367 56.8899 115.097 56.9636V57.0046C114.252 57.0948 113.843 56.0046 113.802 55.2668Z" fill="#263238"/>
<path d="M114.261 54.3323C115.417 53.9307 116.138 56.2833 115.08 56.6521C114.023 57.021 113.285 54.6684 114.261 54.3323Z" fill="#263238"/>
<path d="M107.555 54.9635C107.859 54.7913 108.113 54.5946 108.375 54.3979C108.637 54.2011 108.965 54.029 109.113 53.6601C109.145 53.5493 109.139 53.431 109.096 53.3241C109.053 53.2171 108.975 53.1276 108.875 53.0699C108.661 52.9855 108.429 52.9592 108.201 52.9937C107.974 53.0283 107.759 53.1225 107.58 53.2667C107.182 53.5099 106.89 53.8929 106.76 54.3405C106.733 54.4444 106.736 54.5543 106.77 54.6563C106.804 54.7583 106.867 54.8481 106.952 54.9145C107.037 54.9808 107.139 55.0208 107.246 55.0296C107.354 55.0383 107.461 55.0153 107.555 54.9635Z" fill="#263238"/>
<path d="M114.859 52.8896C114.523 52.9101 114.187 52.9101 113.851 52.8896C113.498 52.9449 113.136 52.8784 112.826 52.7011C112.738 52.6268 112.677 52.5251 112.653 52.4122C112.629 52.2993 112.644 52.1817 112.695 52.0781C112.822 51.8864 113 51.7332 113.208 51.635C113.416 51.5367 113.647 51.4972 113.875 51.5207C114.342 51.4901 114.803 51.6332 115.171 51.9223C115.254 51.9926 115.314 52.086 115.344 52.1907C115.374 52.2955 115.373 52.4067 115.339 52.5104C115.306 52.6141 115.242 52.7055 115.157 52.773C115.071 52.8406 114.968 52.8811 114.859 52.8896Z" fill="#263238"/>
<path d="M110.638 63.2673C110.859 63.3902 111.097 63.587 111.375 63.5378C111.646 63.4583 111.897 63.3244 112.113 63.1443C112.113 63.1443 112.17 63.1443 112.162 63.1443C112.096 63.3159 111.985 63.4665 111.841 63.5804C111.697 63.6944 111.525 63.7674 111.343 63.7919C111.183 63.7902 111.028 63.7419 110.895 63.6531C110.763 63.5643 110.659 63.4387 110.597 63.2919C110.556 63.2755 110.605 63.2509 110.638 63.2673Z" fill="#263238"/>
<path d="M110.834 60.8573C111.098 61.0998 111.409 61.2853 111.747 61.4024C112.086 61.5194 112.445 61.5655 112.802 61.5377C113.107 61.5058 113.408 61.4341 113.695 61.3245L113.859 61.2589L114.015 61.1934C114.052 61.1748 114.082 61.145 114.101 61.1082C114.12 61.0714 114.127 61.0295 114.121 60.9884C114.124 60.9639 114.124 60.9392 114.121 60.9147V60.8491C113.99 60.2753 113.703 59.431 113.703 59.431C113.941 59.4802 115.121 59.6769 115.031 59.3818C114.289 56.8434 113.295 54.3857 112.064 52.0453C112.054 52.0323 112.04 52.023 112.024 52.0189C112.008 52.0148 111.991 52.0162 111.976 52.0228C111.961 52.0294 111.948 52.0408 111.941 52.0553C111.933 52.0698 111.93 52.0864 111.933 52.1027C112.605 54.4471 113.679 56.6685 114.392 59.0211C113.97 58.9447 113.54 58.9281 113.113 58.9719C113.039 59.0129 113.687 60.6114 113.728 60.8655C113.276 61.0329 112.795 61.1082 112.314 61.0871C111.832 61.066 111.36 60.9488 110.924 60.7425C110.826 60.7425 110.777 60.8081 110.834 60.8573Z" fill="#263238"/>
<path d="M113.31 61.136C113.103 61.6228 112.776 62.0488 112.359 62.3738C112.122 62.5487 111.834 62.6408 111.539 62.6361C110.908 62.6361 110.72 62.1032 110.72 61.6114C110.713 61.3498 110.737 61.0883 110.793 60.8327C111.577 61.2051 112.46 61.3116 113.31 61.136Z" fill="#263238"/>
<path d="M112.359 62.3738C112.122 62.5487 111.834 62.6408 111.539 62.6361C110.908 62.6361 110.72 62.1033 110.72 61.6114C111.039 61.5311 111.376 61.563 111.675 61.7018C111.973 61.8406 112.215 62.0779 112.359 62.3738Z" fill="#FF97B8"/>
<path d="M99.76 59.849C102.49 59.226 101.908 54.111 101.908 54.111C101.908 54.111 106.432 52.2912 106.318 48.6025C106.318 48.6025 111.416 50.4468 114.638 48.3893C117.859 46.3318 116.277 42.5283 115.654 41.766C115.031 41.0036 113.49 43.0202 113.49 43.0202C113.49 43.0202 112.761 40.8233 112.113 40.7331C111.466 40.643 111.113 42.1431 111.113 42.1431C108.128 41.873 105.118 42.0526 102.186 42.6759C98.0877 43.7087 97.0139 48.2992 97.0139 48.2992C97.0139 48.2992 94.9236 49.2582 94.5547 50.9469C94.1859 52.6355 98.0222 60.2425 99.76 59.849Z" fill="#263238"/>
<path d="M106.121 47.9549C106.256 48.681 106.256 49.4257 106.121 50.1518C105.991 50.8581 105.671 51.5156 105.195 52.0535C104.686 52.5676 104.085 52.9818 103.424 53.2749C103.088 53.4224 102.736 53.5372 102.391 53.6684C102.047 53.7995 101.67 53.8569 101.309 53.9717C101.686 53.9717 102.055 53.8815 102.432 53.8405C102.809 53.7995 103.17 53.6602 103.531 53.5372C104.272 53.2832 104.945 52.8625 105.498 52.3076C106.023 51.72 106.352 50.9839 106.441 50.2009C106.518 49.4374 106.408 48.6665 106.121 47.9549Z" fill="#263238"/>
<path d="M97.1203 48.8894C97.117 47.6809 97.4338 46.493 98.0384 45.4466C98.6417 44.4219 99.5626 43.6219 100.662 43.1677C100.927 43.0414 101.201 42.9346 101.481 42.848L102.35 42.6349C102.932 42.5202 103.539 42.4956 104.137 42.43C104.736 42.3644 105.342 42.43 105.949 42.43C106.555 42.43 107.154 42.5447 107.76 42.5857C107.17 42.4628 106.563 42.3644 105.965 42.2496C105.367 42.1349 104.744 42.1677 104.129 42.1185C102.888 42.1061 101.657 42.3373 100.506 42.7989C99.3489 43.2941 98.389 44.159 97.7761 45.258C97.1943 46.374 96.9656 47.6404 97.1203 48.8894Z" fill="#263238"/>
<path d="M108.662 60.8491C108.005 60.9427 107.334 60.8505 106.727 60.5828C106.119 60.3152 105.598 59.8828 105.224 59.3346C104.849 58.7865 104.635 58.1444 104.606 57.481C104.578 56.8176 104.735 56.1594 105.061 55.5809C105.387 55.0024 105.868 54.5266 106.45 54.2075C107.033 53.8883 107.693 53.7384 108.356 53.7748C109.019 53.8112 109.658 54.0324 110.202 54.4134C110.746 54.7944 111.172 55.3201 111.433 55.9308C111.645 56.4328 111.74 56.9769 111.709 57.5212C111.678 58.0656 111.523 58.5956 111.256 59.0706C110.988 59.5456 110.615 59.9529 110.166 60.2612C109.716 60.5695 109.202 60.7706 108.662 60.8491ZM107.695 54.2913C107.058 54.3816 106.466 54.6686 106.001 55.1121C105.535 55.5557 105.221 56.1336 105.1 56.7651C104.979 57.3965 105.059 58.0498 105.329 58.6336C105.598 59.2173 106.043 59.7023 106.601 60.0207C107.16 60.339 107.804 60.4747 108.443 60.4089C109.083 60.3431 109.685 60.0789 110.167 59.6535C110.649 59.228 110.986 58.6625 111.131 58.0362C111.275 57.4098 111.22 56.7539 110.974 56.1603C110.711 55.529 110.247 55.002 109.654 54.6612C109.061 54.3203 108.373 54.1845 107.695 54.2749V54.2913Z" fill="#9158C0"/>
<path d="M116.54 58.6932C115.195 58.8899 113.769 57.6849 113.261 55.8898C113.015 55.0365 113.043 54.1273 113.343 53.2912C113.449 52.9241 113.649 52.5906 113.922 52.323C114.195 52.0555 114.532 51.8629 114.902 51.764C115.271 51.6651 115.659 51.6631 116.03 51.7584C116.4 51.8536 116.739 52.0428 117.015 52.3076C117.689 52.886 118.168 53.6593 118.384 54.5208C118.892 56.4144 118.155 58.2669 116.745 58.6194C116.679 58.6505 116.61 58.6752 116.54 58.6932ZM115.228 52.1928H115.048C114.758 52.2861 114.495 52.4471 114.279 52.6623C114.064 52.8775 113.903 53.1409 113.81 53.4306C113.553 54.1736 113.53 54.9776 113.744 55.734C114.187 57.3734 115.482 58.4637 116.646 58.1522C117.81 57.8407 118.384 56.2504 117.95 54.611C117.759 53.8455 117.335 53.1581 116.736 52.6437C116.529 52.4692 116.289 52.3391 116.029 52.2615C115.77 52.184 115.497 52.1606 115.228 52.1928Z" fill="#9158C0"/>
<path d="M111.425 56.4062L111.031 56.1275C111.441 55.5537 112.482 54.6438 113.564 55.3077L113.31 55.7094C112.351 55.0946 111.457 56.3324 111.425 56.4062Z" fill="#9158C0"/>
<path d="M97.0467 61.3245L96.5876 61.2262C96.6368 61.0048 97.0795 59.0949 98.0549 58.6522C99.0304 58.2096 104.613 57.2177 104.85 57.1767L104.932 57.644C102.681 58.0017 100.45 58.4833 98.2517 59.0867C97.6041 59.3736 97.1615 60.7999 97.0467 61.3245Z" fill="#9158C0"/>
<path d="M101.162 59.8736C101.162 59.8736 98.1286 56.7013 96.6532 57.8325C95.1777 58.9637 97.8335 63.8329 99.8419 64.2509C100.098 64.3272 100.366 64.3501 100.631 64.3184C100.896 64.2867 101.152 64.2009 101.382 64.0665C101.613 63.932 101.813 63.7517 101.971 63.5367C102.129 63.3217 102.242 63.0765 102.301 62.8164L101.162 59.8736Z" fill="#D3766A"/>
<path d="M73.5862 133.853C73.6928 133.985 123.483 136.665 123.958 136.173C124.63 135.485 119.859 85.949 110.629 76.1369C108.359 73.7187 100.547 70.9972 98.0713 72.6449C91.6365 76.8992 87.9149 86.244 85.505 91.6542C83.1382 97.5172 81.1182 103.514 79.4554 109.614C76.0782 121.254 73.201 133.362 73.5862 133.853Z" fill="#9158C0"/>
<path d="M86.3576 89.195C84.3985 93.6953 82.5459 98.212 80.9884 102.876C79.4309 107.54 78.0784 112.196 76.8898 116.934C76.2258 119.664 75.6438 122.394 75.193 125.132C75.1977 125.144 75.206 125.155 75.217 125.163C75.228 125.17 75.2411 125.174 75.2545 125.174C75.2679 125.174 75.2809 125.17 75.2919 125.163C75.3029 125.155 75.3113 125.144 75.316 125.132C76.6193 120.426 77.8571 115.705 79.2342 111.016C80.6113 106.327 82.1606 101.647 83.7263 96.9824C84.5952 94.3757 85.5051 91.769 86.4724 89.1868C86.5297 89.1377 86.3904 89.0803 86.3576 89.195Z" fill="#263238"/>
<path d="M103.859 84.5636C111.752 94.9905 128.221 113.582 137.524 113.68C147.361 113.778 167.33 101.384 172.69 97.7775C174.961 96.2282 162.346 80.1453 159.575 81.17C156.804 82.1946 139.615 92.6461 137.443 93.0149C135.27 93.3838 120.081 82.2766 110.22 76.473C98.6861 69.6529 97.4811 76.0795 103.859 84.5636Z" fill="#D3766A"/>
<path d="M152.353 85.3915C153.427 84.1865 158.583 75.3991 160.911 73.4564C163.239 71.5137 173.477 67.9971 176.076 67.7675C178.674 67.538 187.896 70.1611 189.568 71.776C190.913 73.0793 188.634 76.2107 183.38 75.8008C178.461 75.4237 177.314 75.0958 175.904 75.3254C174.494 75.5549 170.297 78.9895 170.682 81.0634C170.912 82.2848 173.781 84.3423 175.986 83.9652C178.191 83.5881 179.519 81.3831 182.248 80.0961C184.978 78.8092 188.167 79.3666 188.429 80.4732C188.872 82.3094 187.396 82.4815 184.437 85.6456C182.527 87.6703 181.158 91.687 177.182 94.9986C175.174 96.6381 168.682 100.392 168.682 100.392L152.353 85.3915Z" fill="#D3766A"/>
<path d="M176.068 91.8427L192.577 92.7772C193.125 91.7611 193.468 90.6469 193.585 89.4983C193.774 86.2194 194.331 76.2762 194.331 76.2762L177.822 75.3418C177.822 75.3418 177.248 85.3915 177.06 88.736C176.914 89.8219 176.579 90.8736 176.068 91.8427Z" fill="#37474F"/>
<path d="M179.715 79.2764C181.666 79.2764 183.609 79.3748 185.552 79.5223C187.495 79.6699 189.429 79.8666 191.355 80.1781C189.405 80.1781 187.462 80.0715 185.519 79.9322C183.576 79.7928 181.642 79.5797 179.715 79.2764Z" fill="white"/>
<path d="M179.552 81.4487C181.306 81.4487 183.052 81.5225 184.798 81.6454C186.544 81.7684 188.282 81.9651 190.011 82.2602C188.257 82.2602 186.511 82.1864 184.765 82.0553C183.019 81.9241 181.281 81.7438 179.552 81.4487Z" fill="white"/>
<path d="M179.379 83.621C180.92 83.621 182.445 83.6619 183.97 83.7685C185.495 83.8751 187.019 84.0554 188.536 84.3341C185.469 84.3643 182.405 84.1256 179.379 83.621Z" fill="white"/>
<path d="M179.215 85.7932C181.166 85.7932 183.109 85.8997 185.044 86.0391C186.978 86.1784 188.921 86.3916 190.847 86.6949C188.896 86.6949 186.954 86.5965 185.011 86.4489C183.068 86.3014 181.142 86.1047 179.215 85.7932Z" fill="white"/>
<path d="M160.911 73.4564C163.6 70.9071 169.928 66.6691 175.256 66.0133C178.879 65.5707 188.872 73.94 188.003 76.0303C187.134 78.1206 185.183 77.6698 182.388 76.5877C181.371 76.2025 176.322 72.8334 175.092 73.7597C173.313 75.0958 170.174 80.3748 170.174 80.3748L160.911 73.4564Z" fill="#D3766A"/>
<path d="M187.929 75.1122C187.109 72.4318 184.322 70.4234 181.494 68.6774C181.453 68.6774 181.404 68.7184 181.453 68.743C182.166 69.1939 186.609 72.7432 187.888 75.145C187.905 75.1696 187.937 75.1368 187.929 75.1122Z" fill="#263238"/>
<path d="M160.911 73.4564C163.6 70.9071 169.928 66.6691 175.256 66.0133C178.879 65.5707 186.109 74.8991 185.24 76.9894C184.372 79.0797 181.535 78.5633 178.683 76.7189C177.773 76.1205 175.01 72.94 173.764 73.8663C171.986 75.1942 167.641 78.5223 167.641 78.5223L160.911 73.4564Z" fill="#D3766A"/>
<path d="M181.158 77.9485C179.934 77.4078 178.835 76.6209 177.928 75.6369C177.206 74.7833 176.312 74.0908 175.305 73.604C174.85 73.4269 174.349 73.4039 173.879 73.5384C173.404 73.7317 172.968 74.0094 172.592 74.3581C172.125 74.7188 171.69 75.104 171.256 75.4893C170.821 75.8746 170.666 76.0303 170.239 76.432C170.059 76.5959 170.19 76.7025 170.395 76.5222C171.126 75.8794 171.916 75.3084 172.756 74.8171C173.164 74.5109 173.614 74.2652 174.092 74.0876C174.603 73.978 175.137 74.0753 175.576 74.3581C176.51 74.9155 177.215 75.7926 178.109 76.4238C178.99 77.1781 180.021 77.7369 181.134 78.0632C181.191 78.0468 181.199 77.9649 181.158 77.9485Z" fill="#263238"/>
<path d="M185.298 74.6286C184.793 73.3847 184.062 72.2452 183.142 71.2677C182.245 70.2264 181.267 69.2588 180.215 68.3741C179.674 67.9151 179.125 67.4724 178.576 67.038C178.07 66.5747 177.488 66.203 176.855 65.9395C175.068 65.3985 173.018 66.374 172.223 66.6281C172.174 66.6281 172.223 66.7265 172.223 66.7101C172.879 66.5052 174.994 65.8248 176.109 66.1117C176.781 66.3273 177.401 66.682 177.928 67.1527C178.404 67.538 178.879 67.9233 179.347 68.3167C181.351 69.8805 183.056 71.7939 184.38 73.9646C185.06 75.186 185.396 76.6451 184.503 77.8419C184.503 77.8419 184.503 77.9239 184.568 77.8993C185.006 77.4917 185.31 76.961 185.44 76.3771C185.571 75.7933 185.521 75.1836 185.298 74.6286Z" fill="#263238"/>
<path d="M158.829 75.7434C159.895 74.4728 162.567 68.8332 164.165 67.3003C165.764 65.7674 172.567 60.7425 174.945 61.6442C177.937 62.7508 173.354 67.4888 171.182 69.3742C169.01 71.2595 168.305 75.1942 168.305 75.1942L158.829 75.7434Z" fill="#D3766A"/>
<path d="M174.354 66.1527C173.606 66.7492 172.889 67.384 172.207 68.0544C171.516 68.6456 170.869 69.2867 170.272 69.9726C169.575 71.1151 169.024 72.3406 168.633 73.6203C168.272 75.6369 167.813 79.9404 166.829 83.9816C166.455 85.507 165.899 86.9821 165.174 88.3753C164.985 88.7196 164.969 89.0311 165.297 88.5393C168.379 83.9406 168.936 75.1204 169.256 73.7187C169.589 72.4882 170.109 71.316 170.797 70.2431C171.912 68.8168 173.322 67.6446 174.453 66.2265C174.502 66.1773 174.412 66.1117 174.354 66.1527Z" fill="#263238"/>
<path d="M152.132 84.9899L166.395 103.794C166.395 103.794 144.131 117.074 134.426 114.229C124.72 111.385 107.711 92.1296 102.219 83.1291C96.7269 74.1286 100.645 70.2595 109.842 75.7516C119.04 81.2437 136.221 91.9083 136.893 92.146C137.565 92.3837 152.132 84.9899 152.132 84.9899Z" fill="#9158C0"/>
<path d="M154.739 96.5725C153.747 95.179 152.722 93.81 151.697 92.4739C151.214 91.8181 150.722 91.1623 150.214 90.523C149.705 89.8836 149.148 89.0803 148.574 88.4327C148.533 88.3835 148.468 88.4327 148.5 88.4901C148.919 89.2606 149.468 89.9819 149.935 90.7279C150.402 91.4738 150.845 92.0886 151.312 92.769C152.279 94.1789 153.238 95.5888 154.239 96.9742C156.23 99.7448 158.337 102.458 160.411 105.171C160.46 105.229 160.559 105.171 160.518 105.098C158.624 102.179 156.722 99.3514 154.739 96.5725Z" fill="#263238"/>
<path d="M142.91 113.787C140.471 114.641 137.841 114.794 135.319 114.229C132.594 113.557 130.067 112.251 127.942 110.418C123.043 106.574 118.455 102.35 114.22 97.7857C111.818 95.1954 109.474 92.5231 107.285 89.7361C107.281 89.7307 107.276 89.7261 107.271 89.7226C107.265 89.719 107.259 89.7166 107.253 89.7155C107.246 89.7143 107.24 89.7145 107.233 89.7159C107.227 89.7173 107.221 89.72 107.215 89.7238C107.21 89.7275 107.205 89.7323 107.202 89.7379C107.198 89.7434 107.196 89.7496 107.195 89.7561C107.194 89.7625 107.194 89.7692 107.195 89.7756C107.197 89.782 107.199 89.7881 107.203 89.7934C108.64 91.8537 110.149 93.8511 111.728 95.7856L111.334 95.4413C110.515 94.7118 109.744 94.0068 108.949 93.2855C108.834 93.1789 108.703 93.3592 108.801 93.4658C109.527 94.2586 110.293 95.0138 111.097 95.7282C111.703 96.2528 112.318 96.8184 112.982 97.2939C115.109 99.8019 117.369 102.194 119.753 104.458C122.106 106.696 124.548 108.836 127.13 110.836C129.401 112.614 131.762 114.221 134.631 114.82C137.449 115.355 140.363 115.038 143 113.91C143.025 113.901 142.984 113.787 142.91 113.787Z" fill="#263238"/>
</svg>
