<svg width="239" height="275" viewBox="0 0 239 275" fill="none" xmlns="http://www.w3.org/2000/svg">
<path d="M148.119 7.82286C148.119 7.82286 118.169 45.7585 70.2506 23.1302C22.3318 0.501841 -25.5871 61.7316 15.6764 99.0017C56.9398 136.272 16.5605 156.752 44.5932 179.593C76.4543 205.554 104.193 152.91 129.484 164.89C185.301 191.33 226.652 180.863 217.335 150.248C200.979 96.508 180.065 93.0119 196.037 65.0592C212.01 37.1065 176.758 -21.0139 148.119 7.82286Z" fill="#F2F1FF"/>
<path d="M131.813 112.743L129.447 125.446L118.177 185.831L97.8768 182.04L110.893 112.285L111.512 108.961L131.813 112.743Z" fill="#8E88F5"/>
<path d="M181.809 82.3647L174.809 119.893C174.789 120.003 174.747 120.108 174.686 120.202C174.625 120.296 174.546 120.376 174.453 120.44C174.361 120.503 174.257 120.547 174.148 120.57C174.038 120.593 173.925 120.595 173.815 120.574L75.4705 102.232L87.0457 40.1699L161.725 54.0985C175.26 56.6225 184.251 69.2751 181.809 82.3647Z" fill="#8E88F5"/>
<path d="M108.051 69.7705L101.106 107.008L49.484 97.3797L56.4291 60.1426C58.9862 46.4324 72.6155 37.4731 86.8701 40.1317C101.125 42.7903 110.608 56.06 108.051 69.7705Z" fill="#8E88F5"/>
<path d="M132.083 87.1776C128.279 86.468 125.769 82.7709 126.485 78.9316C127.202 75.0922 130.875 72.5476 134.679 73.2575C135.892 73.4853 137.023 74.0302 137.956 74.8368C138.89 75.6433 139.594 76.6828 139.995 77.8495L188.047 86.8117L186.749 93.772L138.697 84.8097C137.902 85.7534 136.871 86.4696 135.709 86.8855C134.548 87.3014 133.296 87.4022 132.083 87.1776Z" fill="#9158C0"/>
<path d="M106.338 70.4549L99.5716 106.735L50.9421 97.6651L57.7093 61.3848C60.2006 48.0271 73.1068 39.2284 86.5353 41.733C99.9638 44.2376 108.83 57.097 106.338 70.4549Z" fill="#9158C0"/>
<path d="M133.446 83.6615C135.401 83.6615 136.986 82.0765 136.986 80.1214C136.986 78.1662 135.401 76.5812 133.446 76.5812C131.491 76.5812 129.906 78.1662 129.906 80.1214C129.906 82.0765 131.491 83.6615 133.446 83.6615Z" fill="white"/>
<path d="M188.603 86.7871L184.358 109.545C184.34 109.643 184.283 109.73 184.201 109.786C184.119 109.843 184.018 109.864 183.92 109.846L172.762 107.765C172.742 107.761 172.725 107.75 172.714 107.734C172.703 107.718 172.699 107.698 172.702 107.678L177.002 84.6234C177.006 84.6041 177.017 84.587 177.033 84.5758C177.05 84.5647 177.07 84.5605 177.089 84.5641L188.544 86.7005C188.563 86.7041 188.58 86.7153 188.591 86.7315C188.602 86.7477 188.606 86.7677 188.603 86.7871Z" fill="#8E88F5"/>
<path d="M67.0348 84.646C67.5047 88.1025 71.2975 92.2108 71.2975 92.2108C65.5181 92.6204 62.3881 89.352 61.0413 87.366C59.3762 87.8471 57.6648 88.1508 55.9358 88.272C44.0706 89.113 33.8565 81.3667 33.1189 70.9613C32.3812 60.556 41.4007 51.4462 53.2658 50.6053C65.131 49.7645 75.3444 57.5104 76.0819 67.9159C76.5617 74.6842 72.9095 80.9054 67.0348 84.646Z" fill="white"/>
<path d="M101.156 107.031C100.618 108.391 90.7926 148.906 58.9961 142.976C24.1292 137.073 49.3493 97.368 49.3493 97.368L101.156 107.031Z" fill="#8E88F5"/>
<path d="M54.6001 73.0081C56.2294 73.0081 57.5502 71.6873 57.5502 70.058C57.5502 68.4287 56.2294 67.1079 54.6001 67.1079C52.9708 67.1079 51.65 68.4287 51.65 70.058C51.65 71.6873 52.9708 73.0081 54.6001 73.0081Z" fill="#8E88F5"/>
<path d="M41.3932 71.7216C43.0323 71.7216 44.361 70.3929 44.361 68.7537C44.361 67.1146 43.0323 65.7859 41.3932 65.7859C39.7541 65.7859 38.4253 67.1146 38.4253 68.7537C38.4253 70.3929 39.7541 71.7216 41.3932 71.7216Z" fill="#8E88F5"/>
<path d="M67.6806 74.2653C69.3197 74.2653 70.6485 72.9366 70.6485 71.2974C70.6485 69.6583 69.3197 68.3296 67.6806 68.3296C66.0415 68.3296 64.7128 69.6583 64.7128 71.2974C64.7128 72.9366 66.0415 74.2653 67.6806 74.2653Z" fill="#8E88F5"/>
<path d="M131.813 112.743L129.447 125.446L110.894 112.285L111.512 108.961L131.813 112.743Z" fill="#9158C0"/>
<path d="M33.8008 222.516H38.2808V244.884H33.8008L23.6568 229.556V244.884H19.1768V222.516H23.6568L33.8008 237.876V222.516ZM59.828 236.02C59.828 241.588 55.732 245.172 50.58 245.172C45.46 245.172 41.588 241.588 41.588 236.02C41.588 230.42 45.588 226.868 50.708 226.868C55.828 226.868 59.828 230.42 59.828 236.02ZM46.132 236.02C46.132 239.54 48.18 241.268 50.58 241.268C52.948 241.268 55.22 239.54 55.22 236.02C55.22 232.468 53.012 230.772 50.644 230.772C48.276 230.772 46.132 232.468 46.132 236.02ZM85.9073 244.884L84.4353 240.628H75.5393L74.0673 244.884H69.3633L77.3953 222.516H82.6113L90.6433 244.884H85.9073ZM83.2193 237.044L79.9873 227.7L76.7552 237.044H83.2193ZM93.6455 244.884V221.204H98.1255V244.884H93.6455ZM110.168 230.548C108.024 230.548 106.328 231.924 105.976 234.356H114.392C114.328 232.02 112.472 230.548 110.168 230.548ZM118.584 239.316C117.624 242.58 114.68 245.172 110.296 245.172C105.144 245.172 101.4 241.588 101.4 236.02C101.4 230.42 105.048 226.868 110.296 226.868C115.416 226.868 119.032 230.356 119.032 235.636C119.032 236.212 119 236.788 118.904 237.364H105.944C106.168 239.988 107.96 241.46 110.2 241.46C112.12 241.46 113.176 240.5 113.752 239.316H118.584ZM126.782 236.052V244.884H122.302V227.156H126.782V229.908C127.902 228.084 129.758 226.9 132.222 226.9V231.604H131.038C128.382 231.604 126.782 232.628 126.782 236.052ZM135.943 239.38V230.836H133.831V227.156H135.943V222.772H140.455V227.156H144.423V230.836H140.455V239.412C140.455 240.596 140.935 241.108 142.343 241.108H144.423V244.884H141.607C138.215 244.884 135.943 243.444 135.943 239.38ZM161.406 239.828C161.406 242.868 158.75 245.172 154.43 245.172C149.982 245.172 146.878 242.58 146.686 239.284H151.198C151.358 240.628 152.606 241.652 154.398 241.652C156.158 241.652 157.118 240.852 157.118 239.828C157.118 236.66 147.102 238.676 147.102 232.18C147.102 229.236 149.726 226.868 154.11 226.868C158.398 226.868 160.99 229.204 161.246 232.724H156.958C156.83 231.348 155.742 230.42 153.982 230.42C152.318 230.42 151.454 231.092 151.454 232.116C151.454 235.348 161.278 233.332 161.406 239.828ZM180.26 239.54L184.9 227.156H189.668L178.692 253.268H173.924L177.764 244.436L170.66 227.156H175.684L180.26 239.54ZM199.699 230.548C197.555 230.548 195.859 231.924 195.507 234.356H203.923C203.859 232.02 202.003 230.548 199.699 230.548ZM208.115 239.316C207.155 242.58 204.211 245.172 199.827 245.172C194.675 245.172 190.931 241.588 190.931 236.02C190.931 230.42 194.579 226.868 199.827 226.868C204.947 226.868 208.563 230.356 208.563 235.636C208.563 236.212 208.531 236.788 208.435 237.364H195.475C195.699 239.988 197.491 241.46 199.731 241.46C201.651 241.46 202.707 240.5 203.283 239.316H208.115ZM212.537 239.38V230.836H210.425V227.156H212.537V222.772H217.049V227.156H221.017V230.836H217.049V239.412C217.049 240.596 217.529 241.108 218.937 241.108H221.017V244.884H218.201C214.809 244.884 212.537 243.444 212.537 239.38Z" fill="url(#paint0_linear_54_954)"/>
<path d="M23.6619 267.608L20.6589 261.849H22.3099L24.4029 266.282L26.4959 261.849H28.1339L25.1439 267.608V270.884H23.6619V267.608ZM36.135 267.296C36.135 269.545 34.471 271.001 32.417 271.001C30.376 271.001 28.829 269.545 28.829 267.296C28.829 265.047 30.441 263.604 32.482 263.604C34.523 263.604 36.135 265.047 36.135 267.296ZM30.337 267.296C30.337 268.921 31.299 269.714 32.417 269.714C33.522 269.714 34.614 268.921 34.614 267.296C34.614 265.671 33.561 264.891 32.456 264.891C31.338 264.891 30.337 265.671 30.337 267.296ZM44.087 263.721V270.884H42.605V270.026C42.137 270.637 41.331 270.988 40.486 270.988C38.809 270.988 37.535 269.935 37.535 267.933V263.721H39.004V267.712C39.004 269.025 39.719 269.701 40.798 269.701C41.89 269.701 42.605 269.025 42.605 267.712V263.721H44.087ZM46.5234 264.943H45.4834L46.2764 261.849H47.8884L46.5234 264.943ZM49.1908 270.884V261.264H50.6728V270.884H49.1908ZM52.6186 270.884V261.264H54.1006V270.884H52.6186ZM60.9052 264.787C61.3732 264.137 62.2702 263.604 63.4012 263.604C65.2992 263.604 66.7682 265.06 66.7682 267.27C66.7682 269.48 65.2862 271.001 63.4012 271.001C62.2182 271.001 61.3732 270.468 60.9052 269.844V270.884H59.4232V261.264H60.9052V264.787ZM65.2602 267.27C65.2602 265.723 64.1942 264.891 63.0762 264.891C61.9712 264.891 60.9052 265.762 60.9052 267.296C60.9052 268.843 61.9712 269.714 63.0762 269.714C64.1942 269.714 65.2602 268.817 65.2602 267.27ZM71.2498 264.852C70.2488 264.852 69.4428 265.528 69.2868 266.659H73.2518C73.2258 265.554 72.3548 264.852 71.2498 264.852ZM74.6038 268.752C74.2008 270 73.0698 271.001 71.3148 271.001C69.2608 271.001 67.7398 269.545 67.7398 267.296C67.7398 265.047 69.1958 263.604 71.3148 263.604C73.3558 263.604 74.7988 265.021 74.7988 267.127C74.7988 267.374 74.7858 267.608 74.7468 267.855H69.2738C69.3778 269.038 70.2228 269.753 71.3148 269.753C72.2248 269.753 72.7318 269.311 73.0048 268.752H74.6038ZM84.7172 270.884V266.88C84.7172 265.567 84.0022 264.891 82.9232 264.891C81.8312 264.891 81.1162 265.567 81.1162 266.88V270.884H79.6342V263.721H81.1162V264.54C81.5972 263.955 82.3902 263.604 83.2482 263.604C84.9252 263.604 86.1862 264.657 86.1862 266.659V270.884H84.7172ZM94.9016 267.296C94.9016 269.545 93.2376 271.001 91.1836 271.001C89.1426 271.001 87.5956 269.545 87.5956 267.296C87.5956 265.047 89.2076 263.604 91.2486 263.604C93.2896 263.604 94.9016 265.047 94.9016 267.296ZM89.1036 267.296C89.1036 268.921 90.0656 269.714 91.1836 269.714C92.2886 269.714 93.3806 268.921 93.3806 267.296C93.3806 265.671 92.3276 264.891 91.2226 264.891C90.1046 264.891 89.1036 265.671 89.1036 267.296ZM96.6006 268.895V264.93H95.7556V263.721H96.6006V261.94H98.0956V263.721H99.8376V264.93H98.0956V268.895C98.0956 269.428 98.3036 269.649 98.9276 269.649H99.8376V270.884H98.6676C97.3936 270.884 96.6006 270.351 96.6006 268.895ZM101.204 270.884V263.721H102.686V270.884H101.204ZM101.958 262.772C101.425 262.772 101.009 262.356 101.009 261.823C101.009 261.29 101.425 260.874 101.958 260.874C102.478 260.874 102.894 261.29 102.894 261.823C102.894 262.356 102.478 262.772 101.958 262.772ZM104.813 270.884V264.93H103.968V263.721H104.813V263.214C104.813 261.563 105.658 260.848 107.53 260.848V262.083C106.62 262.083 106.308 262.395 106.308 263.214V263.721H107.634V264.93H106.308V270.884H104.813ZM108.948 270.884V263.721H110.43V270.884H108.948ZM109.702 262.772C109.169 262.772 108.753 262.356 108.753 261.823C108.753 261.29 109.169 260.874 109.702 260.874C110.222 260.874 110.638 261.29 110.638 261.823C110.638 262.356 110.222 262.772 109.702 262.772ZM115.391 264.852C114.39 264.852 113.584 265.528 113.428 266.659H117.393C117.367 265.554 116.496 264.852 115.391 264.852ZM118.745 268.752C118.342 270 117.211 271.001 115.456 271.001C113.402 271.001 111.881 269.545 111.881 267.296C111.881 265.047 113.337 263.604 115.456 263.604C117.497 263.604 118.94 265.021 118.94 267.127C118.94 267.374 118.927 267.608 118.888 267.855H113.415C113.519 269.038 114.364 269.753 115.456 269.753C116.366 269.753 116.873 269.311 117.146 268.752H118.745ZM119.905 267.27C119.905 265.06 121.4 263.604 123.298 263.604C124.234 263.604 125.222 264.046 125.768 264.722V261.264H127.263V270.884H125.768V269.805C125.313 270.455 124.455 271.001 123.285 271.001C121.4 271.001 119.905 269.48 119.905 267.27ZM125.768 267.296C125.768 265.762 124.715 264.891 123.597 264.891C122.492 264.891 121.426 265.723 121.426 267.27C121.426 268.817 122.492 269.714 123.597 269.714C124.715 269.714 125.768 268.843 125.768 267.296ZM133.977 270.884L131.741 263.721H133.249L134.744 269.48L136.265 263.721H137.812L139.268 269.454L140.75 263.721H142.206L139.983 270.884H138.423L136.98 265.593L135.537 270.884H133.977ZM143.314 270.884V261.264H144.796V264.553C145.29 263.955 146.096 263.604 147.019 263.604C148.618 263.604 149.866 264.657 149.866 266.659V270.884H148.397V266.88C148.397 265.567 147.682 264.891 146.603 264.891C145.511 264.891 144.796 265.567 144.796 266.88V270.884H143.314ZM154.772 264.852C153.771 264.852 152.965 265.528 152.809 266.659H156.774C156.748 265.554 155.877 264.852 154.772 264.852ZM158.126 268.752C157.723 270 156.592 271.001 154.837 271.001C152.783 271.001 151.262 269.545 151.262 267.296C151.262 265.047 152.718 263.604 154.837 263.604C156.878 263.604 158.321 265.021 158.321 267.127C158.321 267.374 158.308 267.608 158.269 267.855H152.796C152.9 269.038 153.745 269.753 154.837 269.753C155.747 269.753 156.254 269.311 156.527 268.752H158.126ZM164.863 270.884V266.88C164.863 265.567 164.148 264.891 163.069 264.891C161.977 264.891 161.262 265.567 161.262 266.88V270.884H159.78V263.721H161.262V264.54C161.743 263.955 162.536 263.604 163.394 263.604C165.071 263.604 166.332 264.657 166.332 266.659V270.884H164.863ZM174.42 269.181L176.513 263.721H178.047L173.653 274.251H172.119L173.575 270.767L170.754 263.721H172.405L174.42 269.181ZM185.99 267.296C185.99 269.545 184.326 271.001 182.272 271.001C180.231 271.001 178.684 269.545 178.684 267.296C178.684 265.047 180.296 263.604 182.337 263.604C184.378 263.604 185.99 265.047 185.99 267.296ZM180.192 267.296C180.192 268.921 181.154 269.714 182.272 269.714C183.377 269.714 184.469 268.921 184.469 267.296C184.469 265.671 183.416 264.891 182.311 264.891C181.193 264.891 180.192 265.671 180.192 267.296ZM193.942 263.721V270.884H192.46V270.026C191.992 270.637 191.186 270.988 190.341 270.988C188.664 270.988 187.39 269.935 187.39 267.933V263.721H188.859V267.712C188.859 269.025 189.574 269.701 190.653 269.701C191.745 269.701 192.46 269.025 192.46 267.712V263.721H193.942ZM198.781 267.27C198.781 265.06 200.276 263.604 202.174 263.604C203.11 263.604 204.098 264.046 204.644 264.722V261.264H206.139V270.884H204.644V269.805C204.189 270.455 203.331 271.001 202.161 271.001C200.276 271.001 198.781 269.48 198.781 267.27ZM204.644 267.296C204.644 265.762 203.591 264.891 202.473 264.891C201.368 264.891 200.302 265.723 200.302 267.27C200.302 268.817 201.368 269.714 202.473 269.714C203.591 269.714 204.644 268.843 204.644 267.296ZM214.91 267.296C214.91 269.545 213.246 271.001 211.192 271.001C209.151 271.001 207.604 269.545 207.604 267.296C207.604 265.047 209.216 263.604 211.257 263.604C213.298 263.604 214.91 265.047 214.91 267.296ZM209.112 267.296C209.112 268.921 210.074 269.714 211.192 269.714C212.297 269.714 213.389 268.921 213.389 267.296C213.389 265.671 212.336 264.891 211.231 264.891C210.113 264.891 209.112 265.671 209.112 267.296ZM217.909 270.026C217.909 270.559 217.493 270.975 216.973 270.975C216.44 270.975 216.024 270.559 216.024 270.026C216.024 269.493 216.44 269.077 216.973 269.077C217.493 269.077 217.909 269.493 217.909 270.026Z" fill="#939FA5"/>
<defs>
<linearGradient id="paint0_linear_54_954" x1="33.7635" y1="203.884" x2="184.199" y2="236.283" gradientUnits="userSpaceOnUse">
<stop stop-color="#9158C0"/>
<stop offset="1" stop-color="#8E88F5"/>
</linearGradient>
</defs>
</svg>
