<svg width="98" height="51" viewBox="0 0 98 51" fill="none" xmlns="http://www.w3.org/2000/svg">
<path d="M62.74 4.692C62.74 2.856 62.4706 1.292 61.9317 0H90.7258C93.1505 6.528 94.9351 14.518 96.0804 23.97C97.2928 33.422 97.9321 42.432 98 51H74.6616C74.1901 38.76 72.2031 26.962 68.7008 15.606C62.841 27.166 59.6753 38.964 59.2039 51H39.4019C37.6507 37.672 34.283 25.84 29.2988 15.504C25.6618 24.14 23.8432 32.164 23.8432 39.576C23.8432 43.588 24.3147 47.396 25.2576 51H0.707214C0.23574 48.212 0 44.54 0 39.984C0 35.36 0.673534 30.736 2.02061 26.112C6.80272 24.684 11.3827 22.338 15.7608 19.074C20.2061 15.81 23.4728 12.24 25.5607 8.364C23.8095 5.43999 21.9573 2.652 20.004 0H51.9297C54.4892 7.004 56.4087 14.62 57.6884 22.848C61.0561 16.524 62.74 10.472 62.74 4.692Z" fill="#9158C0"/>
</svg>
